<?xml version="1.0" standalone="no"?>
<!DOCTYPE svg PUBLIC "-//W3C//DTD SVG 1.1//EN" "http://www.w3.org/Graphics/SVG/1.1/DTD/svg11.dtd" >
<svg xmlns="http://www.w3.org/2000/svg">
<metadata></metadata>
<defs>
<font id="hermes_sansregular" horiz-adv-x="1519" >
<font-face units-per-em="2048" ascent="1638" descent="-410" />
<missing-glyph horiz-adv-x="819" />
<glyph horiz-adv-x="2048" />
<glyph horiz-adv-x="2048" />
<glyph unicode="&#xd;" horiz-adv-x="2048" />
<glyph unicode=" "  horiz-adv-x="819" />
<glyph unicode="&#x09;" horiz-adv-x="819" />
<glyph unicode="&#xa0;" horiz-adv-x="819" />
<glyph unicode="!" horiz-adv-x="940" d="M287 172q0 76 53.5 130t128.5 54q77 0 130.5 -54t53.5 -130q0 -75 -54 -128.5t-130 -53.5q-75 0 -128.5 53.5t-53.5 128.5zM350 1370v4q0 43 37 75t82 32t82 -32t37 -75v-4q0 -19 -13.5 -384t-13.5 -402q0 -38 -27 -65t-65 -27q-37 0 -63.5 27t-26.5 65q0 37 -14.5 402.5 t-14.5 383.5z" />
<glyph unicode="&#x22;" horiz-adv-x="1099" d="M236 1372q0 50 34.5 84.5t83.5 34.5q50 0 84.5 -34.5t34.5 -84.5q0 -16 -11.5 -122.5t-28 -253.5t-19.5 -173q-3 -24 -20 -38.5t-42 -14.5q-24 0 -40 13.5t-19 39.5q-12 100 -34.5 312.5t-22.5 236.5zM627 1372q0 50 34.5 84.5t83.5 34.5t84 -34.5t35 -84.5 q0 -16 -11.5 -122.5t-28 -253.5t-19.5 -173q-3 -24 -20 -38.5t-42 -14.5q-24 0 -40 13.5t-19 39.5q-12 100 -34.5 312.5t-22.5 236.5z" />
<glyph unicode="#" d="M184 367q0 32 23 54.5t55 22.5h209l49 230h-178q-32 0 -55 23t-23 55t23 54.5t55 22.5h211l45 209q6 26 28 44t48 18q33 0 55.5 -20.5t22.5 -53.5q0 -12 -2 -20l-37 -177h202l46 209q6 26 27.5 44t47.5 18q33 0 55.5 -20.5t22.5 -53.5q0 -12 -2 -20l-39 -177h187 q32 0 54.5 -22.5t22.5 -54.5t-22.5 -55t-54.5 -23h-220l-49 -230h189q32 0 54.5 -22.5t22.5 -54.5t-22.5 -55t-54.5 -23h-222l-47 -228q-6 -27 -27 -44t-48 -17q-33 0 -56.5 21t-23.5 53q0 8 2 20l43 195h-203l-49 -228q-6 -28 -27 -44.5t-49 -16.5q-32 0 -55 23t-23 55 q0 10 2 16l41 195h-176q-32 0 -55 23t-23 55zM631 444h203l49 230h-203z" />
<glyph unicode="$" d="M188 305q0 38 28.5 66t66.5 28q44 0 79 -41q167 -196 404 -196q214 0 309 110q55 66 55 158q0 84 -57 142.5t-174 84.5q-34 7 -101 19.5t-135.5 24.5t-78.5 14q-184 34 -277.5 122.5t-93.5 262.5q0 91 38.5 164t105.5 121t151 76.5t182 37.5v180q0 34 24 58t58 24 q35 0 58.5 -24t23.5 -58v-180q193 -21 358 -139q50 -37 50 -88q0 -41 -29.5 -67.5t-65.5 -26.5q-31 0 -57 20q-151 125 -340 125q-220 0 -315 -102q-47 -53 -47 -117q0 -84 47.5 -130.5t156.5 -68.5q38 -8 320 -59q185 -36 291 -135t106 -269q0 -208 -130.5 -325 t-344.5 -135v-146q0 -34 -23.5 -58t-58.5 -24q-34 0 -58 24t-24 58v146q-294 25 -471 243q-31 38 -31 80z" />
<glyph unicode="%" horiz-adv-x="1822" d="M195 1178q0 134 94.5 228.5t228.5 94.5q133 0 227.5 -94.5t94.5 -228.5t-94 -228t-228 -94t-228.5 94.5t-94.5 227.5zM350 1178q0 -70 48.5 -121t119.5 -51q70 0 118 51t48 121q0 71 -48 121.5t-118 50.5q-71 0 -119.5 -50.5t-48.5 -121.5zM360 -160q0 22 11 41l956 1772 q22 43 68 43q21 0 41 -10q43 -24 43 -70q0 -17 -13 -39l-956 -1772q-22 -43 -66 -43q-27 0 -51 17q-33 26 -33 61zM995 295q0 132 93 224.5t225 92.5q131 0 223 -92.5t92 -224.5q0 -131 -92 -223t-223 -92q-132 0 -225 92t-93 223zM1147 295q0 -68 48 -118t118 -50 q68 0 116 50t48 118q0 70 -48 120t-116 50q-70 0 -118 -50t-48 -120z" />
<glyph unicode="&#x26;" horiz-adv-x="1671" d="M174 373q0 127 49 215.5t170 159.5q56 34 182 100q-100 108 -143 185t-43 147q0 105 57 179.5t144.5 108t193.5 33.5q168 0 281 -85.5t113 -237.5q0 -144 -88 -238q-67 -72 -179 -133l-22 -12l344 -359q56 54 110 117q26 33 68 33q37 0 66.5 -28t29.5 -64t-24 -60 q-25 -29 -68 -72q-6 -6 -17.5 -18t-21 -21.5t-18.5 -17.5l153 -160q27 -30 27 -63q0 -37 -29.5 -65.5t-66.5 -28.5q-46 0 -72 30l-162 166q-136 -102 -229 -143q-147 -61 -301 -61q-97 0 -186.5 25.5t-160.5 73.5t-114 124.5t-43 169.5zM379 389q0 -100 75 -162.5t224 -62.5 q126 0 248 55q78 37 161 98l-376 390q-136 -70 -217 -115q-64 -37 -89.5 -85t-25.5 -118zM596 1178q0 -16 3.5 -30.5t15.5 -40.5t42.5 -65t77.5 -88l21 -20l59 27q80 41 119 88q43 50 43 122q0 68 -55 110t-138 42q-103 0 -151 -51q-37 -37 -37 -94z" />
<glyph unicode="'" horiz-adv-x="585" d="M174 1372q0 50 35 84.5t84 34.5t84 -34.5t35 -84.5q0 -16 -12 -124t-28 -250t-20 -175q-3 -25 -19.5 -39t-41.5 -14q-24 0 -40.5 14t-19.5 39q-12 100 -34.5 312.5t-22.5 236.5z" />
<glyph unicode="(" horiz-adv-x="724" d="M154 731q0 310 107.5 590t301.5 510q26 29 64 29q37 0 62.5 -25.5t25.5 -60.5q0 -32 -21 -56q-170 -203 -262 -453.5t-92 -533.5q0 -284 92 -534t262 -453q21 -25 21 -55q0 -35 -25.5 -60.5t-62.5 -25.5q-39 0 -64 28q-194 230 -301.5 510t-107.5 590z" />
<glyph unicode=")" horiz-adv-x="724" d="M10 -311q0 33 19 55q171 203 263.5 453t92.5 534q0 283 -92.5 534t-263.5 453q-19 22 -19 56q0 35 25.5 60.5t60.5 25.5q40 0 66 -29q193 -231 301 -511t108 -589t-108 -589t-301 -511q-25 -28 -66 -28q-35 0 -60.5 25.5t-25.5 60.5z" />
<glyph unicode="*" horiz-adv-x="1429" d="M164 1188q0 32 23 55t55 23h338l-168 293q-13 19 -13 38q0 46 39 68q20 10 39 10q46 0 68 -39l170 -293l168 293q22 39 67 39q19 0 39 -10q39 -22 39 -68q0 -23 -10 -38l-168 -293h338q32 0 55 -23t23 -55t-23 -55t-55 -23h-338l168 -293q10 -15 10 -39q0 -45 -39 -67 q-17 -11 -39 -11q-45 0 -67 39l-168 293l-170 -293q-22 -39 -68 -39q-23 0 -39 11q-39 22 -39 65q0 22 13 41l168 293h-338q-32 0 -55 23t-23 55z" />
<glyph unicode="+" horiz-adv-x="1425" d="M143 549q0 38 27.5 65t65.5 27h385v377q0 38 27 65t65 27t65 -27t27 -65v-377h385q38 0 65 -26.5t27 -63.5q0 -38 -27 -65t-65 -27h-385v-377q0 -38 -27 -65t-65 -27t-65 27t-27 65v377h-385q-38 0 -65.5 26.5t-27.5 63.5z" />
<glyph unicode="," horiz-adv-x="796" d="M205 -319q0 39 35 61q59 42 105 99.5t46 115.5q0 7 -2 13t-4 9t-7 5.5l-7 3.5t-9 2.5t-8 1.5q-62 15 -98.5 63.5t-36.5 112.5q0 75 52.5 127.5t127.5 52.5q87 0 140 -59t53 -150q0 -90 -16 -157.5t-56 -139.5q-61 -108 -188 -200q-36 -25 -68 -25q-23 0 -41 18.5 t-18 45.5z" />
<glyph unicode="-" horiz-adv-x="1202" d="M215 563q0 37 25.5 62.5t60.5 25.5h600q35 0 60.5 -25.5t25.5 -62.5t-25.5 -62.5t-60.5 -25.5h-600q-35 0 -60.5 25.5t-25.5 62.5z" />
<glyph unicode="." horiz-adv-x="796" d="M215 172q0 76 53.5 130t128.5 54q77 0 131 -54t54 -130q0 -75 -54.5 -128.5t-130.5 -53.5q-75 0 -128.5 53.5t-53.5 128.5z" />
<glyph unicode="/" horiz-adv-x="1202" d="M31 -305q0 21 8 37l946 2074q10 25 33 39.5t49 14.5q23 0 41 -9q51 -25 51 -82q0 -22 -8 -38l-946 -2075q-10 -24 -32.5 -38.5t-49.5 -14.5q-23 0 -39 8q-53 26 -53 84z" />
<glyph unicode="0" d="M174 741q0 154 42.5 293t118 243t186 165t239.5 61t239.5 -61t186 -165t118 -243t42.5 -293q0 -206 -72 -379t-207.5 -277.5t-306.5 -104.5t-306.5 104.5t-207.5 277.5t-72 379zM379 741q0 -133 31.5 -244t85 -182.5t122 -111t142.5 -39.5t142.5 39.5t122 111t85 182.5 t31.5 244t-31.5 244t-85 183t-122 111.5t-142.5 39.5t-142.5 -39.5t-122 -111.5t-85 -183t-31.5 -244z" />
<glyph unicode="1" d="M252 1092q0 47 39 75l420 297q27 17 53 17h88q43 0 72.5 -30t29.5 -73v-1276q0 -43 -29.5 -72.5t-72.5 -29.5t-72.5 29.5t-29.5 72.5v1164l-353 -250q-27 -17 -53 -17q-48 0 -76 39q-16 26 -16 54z" />
<glyph unicode="2" d="M229 92v8q0 57 11 109t27.5 93.5t46.5 81.5t57 69t71.5 60t77 51t85.5 46.5t86 41t90.5 39.5t86.5 38q97 44 163.5 122.5t66.5 174.5q0 132 -93 214.5t-221 82.5q-103 0 -190 -58.5t-121 -179.5q-21 -84 -100 -84q-42 0 -68 28.5t-26 70.5q0 50 20.5 104.5t63.5 107.5 t101 95.5t142 69t178 26.5q143 0 261 -58.5t188 -168.5t70 -250q0 -77 -25 -145t-66 -119.5t-101 -97t-121.5 -78t-135.5 -62.5q-4 -2 -16 -6q-36 -15 -52.5 -21.5t-53 -22.5t-55.5 -26.5t-51 -29.5t-50.5 -35t-43 -39t-39.5 -46.5t-28.5 -52.5t-20.5 -61h803q38 0 65 -27 t27 -65t-27 -65t-65 -27h-925q-38 0 -65.5 27t-27.5 65z" />
<glyph unicode="3" d="M152 158q0 41 27.5 69.5t68.5 28.5q21 0 49 -12q186 -80 410 -80q96 0 172 18.5t121 46.5t74.5 65.5t40.5 71.5t11 68q0 55 -25 101.5t-78 85.5t-145.5 61.5t-215.5 22.5q-38 0 -67.5 27.5t-29.5 64.5q0 38 29 65t68 27q104 0 182 19.5t120.5 52t62.5 68.5t20 75 q0 37 -20 72t-61.5 68t-119.5 53t-182 20q-157 0 -302 -62q-33 -14 -53 -14q-40 0 -68 28.5t-28 69.5q0 60 53 86q73 37 183 56.5t215 19.5q114 0 215 -23t184 -69.5t131.5 -125t48.5 -179.5q0 -182 -172 -293q118 -57 185 -151.5t67 -225.5q0 -112 -48 -200t-132.5 -142.5 t-195 -83t-240.5 -28.5q-315 0 -498 92q-57 28 -57 86z" />
<glyph unicode="4" d="M154 436v39q0 31 18 55l688 914q27 37 74 37h82q43 0 72.5 -30t29.5 -73v-850h103q38 0 65 -27t27 -65t-27 -65t-65 -27h-103v-242q0 -43 -29.5 -72.5t-72.5 -29.5t-73 29.5t-30 72.5v242h-667q-38 0 -65 27t-27 65zM397 528h516v684z" />
<glyph unicode="5" d="M217 842q0 17 4 49l60 510q5 37 31.5 58.5t70.5 21.5h747q38 0 65.5 -27t27.5 -65t-27.5 -65.5t-65.5 -27.5h-677l-39 -331q147 100 311 100q264 0 428 -147.5t164 -391.5q0 -153 -82 -277.5t-217 -193.5t-293 -69q-212 0 -391 63q-29 11 -47.5 36t-18.5 56q0 39 26.5 69 t65.5 30q19 0 46 -9q177 -61 319 -61q167 0 277 104t110 250q0 166 -99 262.5t-288 96.5q-76 0 -150.5 -30t-130.5 -79q-28 -24 -67 -24q-11 0 -35 6l-70 18q-55 13 -55 68z" />
<glyph unicode="6" d="M195 598q0 239 87.5 433t229.5 331q127 123 300 214t278 91q44 0 70 -26t26 -62q0 -76 -86 -98q-122 -30 -244 -94.5t-215 -157.5q-100 -100 -154 -213q135 86 289 86q253 0 413.5 -156.5t160.5 -404.5q0 -122 -46.5 -228t-125.5 -178.5t-184 -113.5t-220 -41 q-162 0 -295 75t-207 205q-77 136 -77 338zM401 541q0 -162 105.5 -269.5t265.5 -107.5q161 0 267 107.5t106 269.5q0 157 -104.5 265.5t-266.5 108.5q-161 0 -267 -107t-106 -267z" />
<glyph unicode="7" d="M199 1389q0 38 27 65t65 27h942q38 0 65 -26.5t27 -63.5q0 -36 -6 -54q-40 -110 -80 -193.5t-98.5 -167.5t-102 -138t-137.5 -164q-84 -99 -137 -210.5t-71.5 -197t-18.5 -164.5q0 -43 -30 -72.5t-73 -29.5t-72.5 29.5t-29.5 72.5q0 142 71 335.5t210 361.5 q17 20 54.5 64t51 60t43 52.5t43 56t36 54t37.5 63t33 67t35 80.5h-792q-38 0 -65 27.5t-27 65.5z" />
<glyph unicode="8" d="M182 438q0 128 60 223t168 152q-144 115 -144 291q0 174 137 285.5t357 111.5t356.5 -111.5t136.5 -285.5q0 -177 -143 -291q108 -57 167.5 -152t59.5 -223q0 -140 -75 -245t-204 -159t-294 -54q-166 0 -297 54t-208 159t-77 245zM379 438q0 -128 95.5 -201t285.5 -73 t285.5 73t95.5 201q0 40 -8.5 75t-33.5 73t-65 64.5t-109.5 43.5t-160.5 17q-92 0 -162 -17t-111.5 -44t-67.5 -64t-35 -72.5t-9 -75.5zM463 1104q0 -27 4.5 -51t22 -56t48 -55t88 -39t134.5 -16t134.5 16t88 39t48 55t22 56t4.5 51q0 35 -13 69t-43.5 68.5t-92.5 56 t-148 21.5t-148 -21.5t-92.5 -56t-43.5 -68.5t-13 -69z" />
<glyph unicode="9" d="M172 940q0 154 74.5 282.5t207 203.5t294.5 75q250 0 413.5 -162.5t163.5 -423.5q0 -247 -78 -446q-76 -197 -233 -354q-112 -112 -266.5 -194.5t-288.5 -104.5q-12 -2 -27 -2q-43 0 -69.5 29t-26.5 65q0 76 86 94q108 22 238.5 89t222.5 159q93 93 151 215 q-125 -80 -284 -80q-161 0 -294 73t-208.5 200.5t-75.5 281.5zM377 942q0 -157 109.5 -267t261.5 -110q168 0 270 104t102 271q0 171 -104 274t-266 103q-161 0 -267 -107.5t-106 -267.5z" />
<glyph unicode=":" horiz-adv-x="796" d="M215 172q0 76 53.5 130t128.5 54q77 0 131 -54t54 -130q0 -75 -54.5 -128.5t-130.5 -53.5q-75 0 -128.5 53.5t-53.5 128.5zM215 928q0 75 53.5 128.5t128.5 53.5q76 0 130.5 -53.5t54.5 -128.5q0 -76 -54 -130.5t-131 -54.5q-75 0 -128.5 54.5t-53.5 130.5z" />
<glyph unicode=";" horiz-adv-x="796" d="M205 -319q0 39 35 61q59 42 105 99.5t46 115.5q0 7 -2 13t-4 9t-7 5.5l-7 3.5t-9 2.5t-8 1.5q-62 15 -98.5 63.5t-36.5 112.5q0 75 52.5 127.5t127.5 52.5q87 0 140 -59t53 -150q0 -90 -16 -157.5t-56 -139.5q-61 -108 -188 -200q-36 -25 -68 -25q-23 0 -41 18.5 t-18 45.5zM217 928q0 75 53.5 128.5t128.5 53.5t129 -53.5t54 -128.5q0 -76 -54 -130.5t-129 -54.5t-128.5 54.5t-53.5 130.5z" />
<glyph unicode="&#x3c;" horiz-adv-x="1425" d="M154 530v37q0 29 14.5 53.5t40.5 36.5l907 441q23 10 43 10q27 0 50.5 -14t35.5 -39q10 -23 10 -43q0 -27 -14 -50.5t-39 -35.5l-817 -375l817 -377q25 -12 39 -35.5t14 -50.5q0 -20 -10 -43q-12 -25 -35.5 -39t-50.5 -14q-20 0 -43 10l-907 440q-25 12 -40 36.5 t-15 51.5z" />
<glyph unicode="=" horiz-adv-x="1425" d="M133 383q0 38 27 65t65 27h975q38 0 65 -27t27 -65t-27 -65t-65 -27h-975q-38 0 -65 27t-27 65zM133 743q0 39 27 67t65 28h975q38 0 65 -28t27 -65q0 -38 -27 -66t-65 -28h-975q-38 0 -65 27.5t-27 64.5z" />
<glyph unicode="&#x3e;" horiz-adv-x="1425" d="M170 88q0 27 14 50.5t39 35.5l817 375l-817 377q-25 12 -39 35.5t-14 50.5q0 20 10 43q12 25 35.5 39t50.5 14q20 0 43 -10l908 -441q25 -12 40 -36.5t15 -51.5v-37q0 -29 -14.5 -53.5t-40.5 -36.5l-908 -440q-23 -10 -43 -10q-27 0 -50.5 14t-35.5 39q-10 23 -10 43z " />
<glyph unicode="?" horiz-adv-x="1372" d="M174 1106q0 88 47.5 163t123.5 122.5t166 73.5t179 26q97 0 187 -25t162 -72t115.5 -123t43.5 -169q0 -107 -39.5 -166.5t-130.5 -114.5l-182 -108q-7 -4 -25 -13.5t-26.5 -16t-20.5 -17.5t-17 -26.5t-5 -35.5v-24q0 -42 -26.5 -65t-61.5 -23q-34 0 -59 23.5t-25 62.5v61 q0 54 29 98t96 84l200 121q101 62 101 158q0 94 -88 155.5t-228 61.5q-134 0 -220.5 -62.5t-107.5 -164.5q-16 -80 -98 -80q-38 0 -64 28t-26 68zM483 172q0 76 54 130t129 54t128.5 -54t53.5 -130q0 -75 -53.5 -128.5t-128.5 -53.5t-129 53.5t-54 128.5z" />
<glyph unicode="@" horiz-adv-x="1589" d="M225 528q0 503 176 756q77 112 195.5 168.5t253.5 56.5q118 0 189 -26.5t145 -87.5q170 -139 170 -625v-545q0 -34 -24 -58t-58 -24t-58 24t-24 58v17q-38 -39 -93.5 -60.5t-113.5 -21.5q-181 0 -282 104t-101 283q0 218 164 332q115 77 291 77q73 0 131 -12 q-13 253 -109 334q-51 42 -100.5 61t-134.5 19q-199 0 -318 -193q-62 -103 -86 -257t-24 -363q0 -175 43.5 -326t115.5 -242q127 -157 299 -157q73 0 136 21t141 69q29 18 55 18q35 0 58.5 -25.5t23.5 -60.5q0 -42 -39 -67q-171 -119 -387 -119q-247 0 -416 194 q-102 118 -160.5 296.5t-58.5 381.5zM776 559q0 -120 60 -180q53 -53 155 -53q127 0 199 80v393q-77 14 -117 14q-127 0 -192 -43q-105 -69 -105 -211z" />
<glyph unicode="A" horiz-adv-x="1556" d="M88 100q0 18 10 41l551 1274q12 30 36.5 48t53.5 18h78q29 0 52.5 -18t35.5 -48l555 -1274q8 -24 8 -39q0 -31 -17 -56.5t-46 -37.5q-16 -8 -39 -8q-71 0 -96 61l-117 279h-760l-114 -279q-11 -27 -35.5 -44t-57.5 -17q-23 0 -39 8q-59 24 -59 92zM471 524h606l-303 736z " />
<glyph unicode="B" horiz-adv-x="1695" d="M256 102v1276q0 43 29.5 73t72.5 30h605q229 0 356 -127q111 -111 111 -267q0 -169 -142 -284q104 -61 157.5 -155t53.5 -210q0 -168 -121 -286q-75 -72 -183 -112t-232 -40h-607q-41 0 -70.5 30.5t-29.5 71.5zM461 184h502q169 0 264 95q67 67 67 159q0 57 -14 100.5 t-48 82t-100 59t-161 20.5h-510v-516zM461 881h512q145 0 204.5 54t59.5 152q0 85 -53 138q-68 71 -221 71h-502v-415z" />
<glyph unicode="C" horiz-adv-x="1689" d="M164 741q0 216 96 390t266.5 272t382.5 98q195 0 354 -81.5t257 -227.5q16 -24 16 -53q0 -40 -27 -67.5t-65 -27.5q-48 0 -82 46q-169 231 -453 231q-241 0 -390.5 -161.5t-149.5 -418.5t149.5 -418t390.5 -161q150 0 254.5 57.5t200.5 179.5q31 39 78 39q40 0 67 -27 t27 -67q0 -34 -18 -59q-104 -146 -260 -225.5t-349 -79.5q-212 0 -382.5 98.5t-266.5 272.5t-96 390z" />
<glyph unicode="D" horiz-adv-x="1632" d="M256 102v1276q0 42 29.5 72.5t70.5 30.5h424q270 0 463 -193q104 -104 162.5 -246.5t58.5 -300.5q0 -157 -59.5 -300.5t-163.5 -247.5q-190 -193 -461 -193h-424q-41 0 -70.5 30.5t-29.5 71.5zM461 184h319q186 0 318 138q73 77 114 185t41 234q0 128 -43 237.5 t-118 186.5q-128 131 -312 131h-319v-1112z" />
<glyph unicode="E" horiz-adv-x="1544" d="M256 102v1276q0 42 29.5 72.5t70.5 30.5h969q38 0 65 -27t27 -65t-27 -65.5t-65 -27.5h-864v-462h549q38 0 65 -27.5t27 -65.5t-27 -65t-65 -27h-549v-465h864q38 0 65 -27t27 -65t-27 -65t-65 -27h-969q-41 0 -70.5 30.5t-29.5 71.5z" />
<glyph unicode="F" horiz-adv-x="1482" d="M256 102v1276q0 42 29.5 72.5t70.5 30.5h969q38 0 65 -27t27 -65t-27 -65.5t-65 -27.5h-864v-462h549q38 0 65 -27.5t27 -65.5t-27 -65t-65 -27h-549v-547q0 -43 -30 -72.5t-73 -29.5t-72.5 29.5t-29.5 72.5z" />
<glyph unicode="G" horiz-adv-x="1687" d="M164 741q0 216 96 390t266.5 272t382.5 98q371 0 525 -258q18 -31 18 -57q0 -37 -27.5 -64.5t-68.5 -27.5q-31 0 -50.5 16t-37.5 43q-60 86 -147 126t-212 40q-241 0 -390.5 -160.5t-149.5 -417.5t149.5 -418t390.5 -161q117 0 218.5 41.5t172.5 115.5v293h-409 q-37 0 -63.5 25.5t-26.5 62.5t26.5 64t63.5 27h500q38 0 65 -26.5t27 -64.5v-462q-101 -122 -250 -190t-324 -68q-212 0 -382.5 98.5t-266.5 272.5t-96 390z" />
<glyph unicode="H" horiz-adv-x="1683" d="M256 102v1276q0 43 29.5 73t72.5 30t73 -30t30 -73v-544h762v544q0 43 29.5 73t72.5 30t72.5 -30t29.5 -73v-1276q0 -43 -29.5 -72.5t-72.5 -29.5t-72.5 29.5t-29.5 72.5v547h-762v-547q0 -43 -30 -72.5t-73 -29.5t-72.5 29.5t-29.5 72.5z" />
<glyph unicode="I" horiz-adv-x="716" d="M256 102v1276q0 43 29.5 73t72.5 30t73 -30t30 -73v-1276q0 -43 -30 -72.5t-73 -29.5t-72.5 29.5t-29.5 72.5z" />
<glyph unicode="J" horiz-adv-x="1261" d="M61 252q0 38 27.5 65t67.5 27q46 0 80 -43q42 -52 117.5 -94.5t189.5 -42.5q149 0 219 76q33 36 46 79.5t13 112.5v946q0 43 30 73t73 30q40 0 68.5 -29.5t33.5 -73.5v-940q0 -204 -111 -321q-131 -137 -372 -137q-167 0 -290.5 65t-174.5 150q-17 28 -17 57z" />
<glyph unicode="K" horiz-adv-x="1710" d="M256 102v1276q0 43 29.5 73t72.5 30t73 -30t30 -73v-743l821 817q32 29 72 29q42 0 73 -31q29 -29 29 -72q0 -42 -31 -73l-479 -461l586 -674q24 -30 24 -68q0 -47 -34 -77q-31 -25 -68 -25q-48 0 -78 35l-567 676l-348 -336v-273q0 -43 -30 -72.5t-73 -29.5t-72.5 29.5 t-29.5 72.5z" />
<glyph unicode="L" horiz-adv-x="1429" d="M256 102v1276q0 43 29.5 73t72.5 30t73 -30t30 -73v-1194h825q38 0 65 -27t27 -65t-27 -65t-65 -27h-930q-41 0 -70.5 30.5t-29.5 71.5z" />
<glyph unicode="M" horiz-adv-x="1810" d="M256 102v1276q0 43 29.5 73t72.5 30h93q59 0 84 -51l366 -797l369 797q25 51 84 51h98q42 0 70.5 -29.5t31.5 -73.5v-1276q0 -43 -29.5 -72.5t-72.5 -29.5t-72.5 29.5t-29.5 72.5v998q0 19 8 143h-4q-25 -86 -43 -127l-326 -678q-24 -55 -80 -55q-30 0 -51 11t-37 44 l-321 678q-9 19 -19.5 51t-16.5 54l-7 22h-4q8 -116 8 -143v-998q0 -43 -29 -72.5t-72 -29.5t-71.5 29.5t-28.5 72.5z" />
<glyph unicode="N" horiz-adv-x="1699" d="M256 102v1276q0 43 29.5 73t72.5 30h84q60 0 90 -51l662 -1078q9 -15 15.5 -25.5t10.5 -17.5t7.5 -15t4.5 -11t5 -13.5t6 -15.5h4q-8 39 -8 115v1009q0 43 29.5 73t72.5 30q42 0 71.5 -30t31.5 -73v-1276q0 -43 -30 -72.5t-73 -29.5h-92q-59 0 -88 51l-665 1088l-12 19.5 t-8.5 13.5t-7 12t-4.5 8t-3.5 8t-2.5 6.5t-3.5 9.5t-3.5 11h-5q11 -53 11 -111v-1001q0 -44 -29.5 -79.5t-71.5 -35.5q-43 0 -71.5 29.5t-28.5 72.5z" />
<glyph unicode="O" horiz-adv-x="1818" d="M164 741q0 154 59 294.5t159 242.5t238 162.5t289 60.5t289 -60.5t238 -162.5t159.5 -242.5t59.5 -294.5t-59.5 -295t-159.5 -243t-238 -162.5t-289 -60.5q-101 0 -197.5 27.5t-178 76.5t-150.5 119.5t-117 154t-75 182t-27 201.5zM369 741q0 -119 42.5 -226 t114.5 -184.5t172 -123t211 -45.5q148 0 272.5 77t196.5 210.5t72 291.5t-72 291t-196.5 210t-272.5 77t-272.5 -77t-196 -210t-71.5 -291z" />
<glyph unicode="P" horiz-adv-x="1609" d="M256 102v1276q0 42 29.5 72.5t70.5 30.5h562q122 0 230.5 -40.5t184.5 -113.5q121 -121 121 -289q0 -179 -119 -301q-145 -145 -417 -145h-457v-490q0 -43 -30 -72.5t-73 -29.5t-72.5 29.5t-29.5 72.5zM461 776h461q183 0 264 78q63 63 63 184q0 89 -65 160 q-95 98 -266 98h-457v-520z" />
<glyph unicode="Q" horiz-adv-x="1818" d="M164 741q0 123 37.5 239t107 210t161 165t205 109.5t234.5 38.5q151 0 289 -60.5t238 -163t159.5 -243.5t59.5 -295q0 -153 -56.5 -290t-158.5 -242l159 -229q19 -25 19 -56q0 -47 -41 -74q-26 -16 -51 -16q-48 0 -76 39l-154 219q-176 -112 -387 -112 q-101 0 -197.5 27.5t-178 76.5t-150.5 119.5t-117 154t-75 182t-27 201.5zM369 741q0 -119 42.5 -226t114.5 -184.5t172 -123t211 -45.5q152 0 279 84l-148 209q-16 26 -16 53q0 48 39 76q26 16 53 16q48 0 76 -39l133 -190q125 160 125 370q0 158 -72 291t-196.5 210 t-272.5 77t-272.5 -77t-196 -210t-71.5 -291z" />
<glyph unicode="R" horiz-adv-x="1685" d="M256 102v1276q0 43 29.5 73t72.5 30h603q123 0 235 -41t188 -117q117 -117 117 -285q0 -180 -121 -301q-104 -100 -268 -133l344 -440q21 -26 21 -62q0 -49 -41 -82q-26 -20 -62 -20q-52 0 -82 41l-415 551h-416v-490q0 -43 -30 -72.5t-73 -29.5t-72.5 29.5t-29.5 72.5z M461 776h506q187 0 264 80q61 61 61 182q0 100 -71 168q-93 90 -260 90h-500v-520z" />
<glyph unicode="S" horiz-adv-x="1572" d="M164 297q0 43 29.5 74.5t74.5 31.5q44 0 86 -45q184 -196 445 -196q235 0 338 110q61 66 61 158q0 176 -254 227q-37 7 -111 19.5t-148.5 24.5t-86.5 14q-213 37 -295 119q-106 106 -106 266q0 64 27 125.5t73 107.5q170 170 508 170q255 0 473 -137q65 -42 65 -92 q0 -40 -27.5 -70t-68.5 -30q-36 0 -76 28q-173 121 -368 121q-244 0 -346 -102q-54 -54 -54 -117q0 -84 52.5 -130.5t173.5 -68.5q98 -18 352 -59q225 -40 330 -154q50 -56 74 -112.5t24 -137.5q0 -187 -121 -305q-163 -160 -481 -160q-383 0 -606 242q-37 37 -37 78z" />
<glyph unicode="T" horiz-adv-x="1331" d="M86 1389q0 38 27 65t65 27h975q38 0 65 -27t27 -65t-27 -65.5t-65 -27.5h-385v-1194q0 -43 -29.5 -72.5t-72.5 -29.5t-73 29.5t-30 72.5v1194h-385q-38 0 -65 27.5t-27 65.5z" />
<glyph unicode="U" horiz-adv-x="1712" d="M236 586v792q0 43 30.5 73t73.5 30t73.5 -30t30.5 -73v-792q0 -173 120 -297.5t292 -124.5t294 124.5t122 297.5v792q0 43 29.5 73t72.5 30t73 -30t30 -73v-792q0 -129 -49.5 -242t-133.5 -192.5t-198 -125.5t-240 -46q-169 0 -310.5 77.5t-225.5 217.5t-84 311z" />
<glyph unicode="V" horiz-adv-x="1529" d="M111 1378q0 47 31 75t71 28q72 0 98 -66l432 -1130q20 -53 25 -97h4q2 44 21 95l434 1132q25 66 90 66q42 0 72 -29t30 -68q0 -22 -8 -43l-510 -1271q-12 -31 -36.5 -50.5t-53.5 -19.5h-92q-29 0 -53.5 19.5t-36.5 50.5l-508 1265q-10 23 -10 43z" />
<glyph unicode="W" horiz-adv-x="1746" d="M143 1378q0 43 30 73t73 30q84 0 102 -86l217 -1043q6 -30 11 -68t6 -60l2 -23h4q7 98 18 151l180 797q8 34 32 55t59 21q33 0 57.5 -21.5t32.5 -54.5l180 -797q11 -53 18 -151h4q5 85 19 151l217 1043q18 86 102 86q43 0 70 -30.5t27 -70.5q0 -13 -7 -41l-301 -1257 q-9 -36 -34 -59t-58 -23h-76q-29 0 -51 20.5t-30 51.5l-160 690q-13 67 -13 139h-4q0 -93 -12 -139l-158 -690q-8 -31 -30.5 -51.5t-51.5 -20.5h-75q-33 0 -58 23t-34 59l-301 1255q-7 25 -7 41z" />
<glyph unicode="X" horiz-adv-x="1540" d="M133 102q0 35 23 64l481 598l-442 551q-23 26 -23 63q0 52 39 80q26 23 63 23q51 0 80 -39l414 -543l416 543q24 39 80 39q37 0 63 -23q39 -28 39 -80q0 -37 -23 -63l-442 -549l483 -600q23 -29 23 -64q0 -51 -39 -79q-26 -23 -63 -23q-51 0 -80 39l-455 594l-455 -594 q-29 -39 -79 -39q-38 0 -64 23q-39 28 -39 79z" />
<glyph unicode="Y" horiz-adv-x="1388" d="M90 1378q0 41 31 72t72 31q55 0 83 -45l422 -643l412 643q29 45 86 45q41 0 71.5 -31t30.5 -72q0 -30 -18 -57l-492 -709q9 -432 9 -510q0 -43 -30 -72.5t-73 -29.5t-72.5 29.5t-29.5 72.5l8 510l-491 709q-19 29 -19 57z" />
<glyph unicode="Z" horiz-adv-x="1486" d="M123 96q0 42 24 72l908 1128h-789q-38 0 -65 27.5t-27 65.5t27 65t65 27h994q50 0 77 -39q17 -26 17 -64q0 -35 -31 -73l-901 -1121h850q38 0 65 -27t27 -65t-27 -65t-65 -27h-1055q-42 0 -68 27.5t-26 68.5z" />
<glyph unicode="[" horiz-adv-x="788" d="M195 -305v2072q0 38 26.5 65.5t63.5 27.5h415q37 0 62.5 -25.5t25.5 -60.5q0 -37 -25.5 -62.5t-62.5 -25.5h-323v-1911h323q37 0 62.5 -24.5t25.5 -61.5t-25.5 -61.5t-62.5 -24.5h-415q-37 0 -63.5 27t-26.5 65z" />
<glyph unicode="\" horiz-adv-x="1189" d="M31 1769q0 57 51 82q18 9 41 9q26 0 49 -14.5t33 -39.5l946 -2074q8 -16 8 -37q0 -58 -53 -84q-16 -8 -39 -8q-27 0 -49.5 14.5t-32.5 38.5l-946 2075q-8 16 -8 38z" />
<glyph unicode="]" horiz-adv-x="788" d="M0 -311q0 37 25.5 61.5t62.5 24.5h324v1911h-324q-37 0 -62.5 25.5t-25.5 62.5q0 35 25.5 60.5t62.5 25.5h416q36 0 61.5 -27t28.5 -66v-2072q0 -38 -26.5 -65t-63.5 -27h-416q-37 0 -62.5 24.5t-25.5 61.5z" />
<glyph unicode="^" horiz-adv-x="1425" d="M266 1104q0 6 2.5 13t5 12t8 13.5t7.5 12.5l327 561q13 21 39.5 36t57.5 15t57 -15t39 -36l328 -561q2 -4 7.5 -13t7.5 -13t4.5 -11.5t2.5 -13.5q0 -25 -17 -42.5t-42 -17.5q-28 0 -45 21l-342 455l-342 -455q-17 -21 -45 -21q-25 0 -42.5 17.5t-17.5 42.5z" />
<glyph unicode="_" horiz-adv-x="1024" d="M-59 -244q0 23 18 41.5t41 18.5h1024q23 0 41 -18.5t18 -41.5q0 -24 -17.5 -41.5t-41.5 -17.5h-1024q-24 0 -41.5 17.5t-17.5 41.5z" />
<glyph unicode="`" horiz-adv-x="585" d="M20 1608q0 49 34.5 83.5t84.5 34.5q54 0 82 -32l322 -357q22 -22 22 -51q0 -20 -12 -35q-19 -22 -47 -22q-21 0 -39 12l-406 277q-41 27 -41 90z" />
<glyph unicode="a" horiz-adv-x="1478" d="M143 549q0 153 75 282t203.5 204t280.5 75q223 0 369 -143v37q0 40 28 68t68 28q39 0 66.5 -28t30.5 -68v-908q0 -40 -28.5 -68t-68.5 -28t-68 28t-28 68v37q-146 -143 -366 -143q-155 0 -284 74t-203.5 202.5t-74.5 282.5zM336 551q0 -163 104 -275t262 -112 q163 0 266 111.5t103 275.5q0 166 -102.5 275.5t-263.5 109.5q-159 0 -264 -111.5t-105 -273.5z" />
<glyph unicode="b" horiz-adv-x="1478" d="M215 96v1288q0 40 28 68.5t68 28.5t68.5 -28.5t28.5 -68.5v-417q146 143 366 143q153 0 282 -75t204 -203.5t75 -280.5q0 -153 -75 -282t-203.5 -204t-280.5 -75q-222 0 -368 143v-37q0 -40 -28.5 -68t-68.5 -28t-68 28t-28 68zM408 551q0 -163 104 -275t262 -112 q160 0 264.5 112t104.5 275q0 162 -104.5 273.5t-262.5 111.5q-159 0 -263.5 -111.5t-104.5 -273.5z" />
<glyph unicode="c" horiz-adv-x="1304" d="M143 549q0 153 74 282t202.5 204t282.5 75q138 0 258 -62t193 -167q18 -29 18 -58q0 -37 -28.5 -63.5t-63.5 -26.5q-46 0 -78 45q-119 158 -296 158q-159 0 -264 -111.5t-105 -273.5q0 -163 104 -275t262 -112q185 0 297 158q30 45 78 45q38 0 65 -27.5t27 -65.5 q0 -31 -18 -55q-75 -106 -192.5 -167.5t-253.5 -61.5q-153 0 -282.5 75t-204.5 203.5t-75 280.5z" />
<glyph unicode="d" horiz-adv-x="1478" d="M143 549q0 153 73.5 282t202 204t283.5 75q223 0 369 -143v417q0 40 28 68.5t68 28.5t68.5 -28.5t28.5 -68.5v-1288q0 -40 -28.5 -68t-68.5 -28t-68 28t-28 68v37q-146 -143 -366 -143q-155 0 -284.5 75t-203.5 203.5t-74 280.5zM336 551q0 -163 104 -275t262 -112 q164 0 266.5 110t102.5 277q0 165 -102.5 275t-263.5 110q-159 0 -264 -111.5t-105 -273.5z" />
<glyph unicode="e" horiz-adv-x="1341" d="M143 549q0 161 71.5 290t195 200t274.5 71q220 0 368 -154t148 -387q0 -37 -24.5 -63.5t-65.5 -26.5h-770q19 -135 113.5 -225t226.5 -90q90 0 157 30t132 95q37 37 71 37q36 0 61 -25.5t25 -64.5q0 -34 -26 -64q-78 -88 -186 -135t-224 -47q-154 0 -279 72t-196.5 200 t-71.5 287zM344 645h662q-14 129 -102.5 212t-217.5 83t-226.5 -81t-115.5 -214z" />
<glyph unicode="f" horiz-adv-x="1011" d="M41 1012q0 37 25.5 62.5t60.5 25.5h215v74q0 154 109.5 259t259.5 105q75 0 146.5 -29.5t115.5 -78.5q28 -31 28 -66q0 -38 -25.5 -64t-62.5 -26q-26 0 -73 37q-33 28 -61.5 40.5t-67.5 12.5q-76 0 -126 -57t-50 -133v-74h290q37 0 62.5 -25.5t25.5 -60.5 q0 -37 -25.5 -62.5t-60.5 -25.5h-292v-830q0 -40 -28.5 -68t-68.5 -28t-68 28t-28 68v830h-213q-37 0 -62.5 25.5t-25.5 60.5z" />
<glyph unicode="g" horiz-adv-x="1478" d="M143 549q0 153 74.5 282t203 204t281.5 75q222 0 369 -147v41q0 40 28 68t68 28t68.5 -28t28.5 -68v-951q0 -127 -39.5 -215t-130.5 -153q-144 -103 -398 -103q-222 0 -395 103q-51 29 -51 84q0 38 24.5 65t61.5 27q24 0 55 -17q79 -46 146.5 -68t158.5 -22q195 0 293 74 q82 64 82 225v82q-148 -145 -366 -145q-155 0 -284 73.5t-203.5 202t-74.5 283.5zM336 551q0 -166 102 -276.5t264 -110.5q163 0 266 111.5t103 273.5q0 166 -102.5 276.5t-263.5 110.5q-159 0 -264 -111.5t-105 -273.5z" />
<glyph unicode="h" horiz-adv-x="1460" d="M215 96v1288q0 40 28 68.5t68 28.5t68.5 -28.5t28.5 -68.5v-444q138 170 366 170q139 0 248 -56.5t170 -154.5q74 -124 74 -334v-469q0 -40 -28.5 -68t-68.5 -28t-68 28t-28 68v477q0 117 -24 185q-30 84 -102 131t-179 47q-102 0 -180.5 -45.5t-118.5 -112.5 q-61 -99 -61 -221v-461q0 -40 -28.5 -68t-68.5 -28t-68 28t-28 68z" />
<glyph unicode="i" horiz-adv-x="643" d="M174 1442q0 60 44 103.5t104 43.5t103.5 -43.5t43.5 -103.5t-43.5 -104t-103.5 -44t-104 44t-44 104zM225 96v908q0 40 28.5 68t68.5 28t68 -28t28 -68v-908q0 -40 -28 -68t-68 -28t-68.5 28t-28.5 68z" />
<glyph unicode="j" horiz-adv-x="933" d="M51 -240q0 37 25.5 62.5t64.5 25.5q26 0 48 -14.5t37.5 -32.5t46 -32.5t69.5 -14.5q91 0 139 68q35 51 35 158v1024q0 40 28 68t68 28t68.5 -28t28.5 -68v-1024q0 -93 -14.5 -151.5t-53.5 -111.5q-46 -63 -126.5 -99t-174.5 -36q-156 0 -256 103q-33 33 -33 75zM465 1442 q0 60 43.5 103.5t103.5 43.5t104 -43.5t44 -103.5t-44 -104t-104 -44t-103.5 44t-43.5 104z" />
<glyph unicode="k" horiz-adv-x="1345" d="M215 96v1288q0 40 28 68.5t68 28.5t68.5 -28.5t28.5 -68.5v-813l645 508q27 21 59 21q49 0 76 -37q20 -26 20 -59q0 -49 -37 -76l-415 -320l458 -448q29 -26 29 -68q0 -41 -29 -67q-29 -29 -67 -29q-42 0 -68 29l-465 477l-206 -158v-248q0 -40 -28.5 -68t-68.5 -28 t-68 28t-28 68z" />
<glyph unicode="l" horiz-adv-x="663" d="M236 96v1288q0 40 28 68.5t68 28.5t68 -28.5t28 -68.5v-1288q0 -40 -28 -68t-68 -28t-68 28t-28 68z" />
<glyph unicode="m" horiz-adv-x="1748" d="M215 96v908q0 40 28 68t68 28t68.5 -28t28.5 -68v-31q40 63 104 100t143 37q105 0 181 -55t102 -140q39 87 112 141t171 54q104 0 176 -46t108 -124q39 -85 39 -229v-615q0 -40 -28 -68t-68 -28t-68 28t-28 68v606q0 72 -13 119q-14 48 -51.5 81.5t-95.5 33.5 q-125 0 -188 -115q-29 -56 -29 -135v-590q0 -40 -28 -68t-68 -28t-68.5 28t-28.5 68v611q0 74 -10 110q-15 52 -51 85.5t-96 33.5t-110.5 -28.5t-78.5 -78.5q-28 -49 -28 -124v-609q0 -40 -28.5 -68t-68.5 -28t-68 28t-28 68z" />
<glyph unicode="n" horiz-adv-x="1460" d="M215 96v908q0 40 28 68t68 28t68.5 -28t28.5 -68v-64q138 170 366 170q139 0 248 -56.5t170 -154.5q74 -124 74 -334v-469q0 -40 -28.5 -68t-68.5 -28t-68 28t-28 68v477q0 117 -24 185q-30 84 -102 131t-179 47q-102 0 -180.5 -45.5t-118.5 -112.5q-61 -99 -61 -221 v-461q0 -40 -28.5 -68t-68.5 -28t-68 28t-28 68z" />
<glyph unicode="o" horiz-adv-x="1409" d="M143 549q0 153 74.5 282t203 204t281.5 75t283 -74.5t205.5 -203t75.5 -281.5t-75.5 -282t-205.5 -204t-283 -75t-281.5 74.5t-203 203t-74.5 281.5zM336 551q0 -163 103.5 -275t262.5 -112q160 0 265.5 112t105.5 275t-105.5 274t-265.5 111q-159 0 -262.5 -111.5 t-103.5 -273.5z" />
<glyph unicode="p" horiz-adv-x="1478" d="M215 -285v1289q0 40 28 68t68 28t68.5 -28t28.5 -68v-43q143 149 368 149q157 0 285.5 -74t201 -202t72.5 -283q0 -154 -73 -283t-201.5 -203.5t-284.5 -74.5q-110 0 -197.5 36t-170.5 119v-430q0 -40 -28.5 -68t-68.5 -28t-68 28t-28 68zM408 551q0 -165 101.5 -276 t264.5 -111q162 0 265.5 111.5t103.5 275.5t-101.5 274.5t-263.5 110.5t-266 -110t-104 -275z" />
<glyph unicode="q" horiz-adv-x="1478" d="M143 549q0 155 72.5 284t200.5 203t284 74q111 0 206.5 -39.5t164.5 -109.5v43q0 40 28 68t68 28q39 0 67 -28t30 -68v-1289q0 -40 -28.5 -68t-68.5 -28t-68 28t-28 68v428q-156 -153 -366 -153q-156 0 -285 74t-203 202.5t-74 282.5zM336 551q0 -164 102 -275.5 t264 -111.5q166 0 267.5 111t101.5 276q0 166 -103.5 275.5t-265.5 109.5q-159 0 -262.5 -111.5t-103.5 -273.5z" />
<glyph unicode="r" horiz-adv-x="1224" d="M215 96v908q0 40 28 68t68 28t68.5 -28t28.5 -68v-46q64 61 143 97q112 55 235 55q101 0 194.5 -39.5t147.5 -109.5q25 -33 25 -62q0 -39 -25 -65.5t-63 -26.5q-24 0 -40 8t-36 31q-77 90 -239 90q-141 0 -236 -72q-106 -79 -106 -223v-545q0 -40 -28.5 -68t-68.5 -28 t-68 28t-28 68z" />
<glyph unicode="s" horiz-adv-x="1378" d="M152 233q0 38 25.5 66.5t68.5 28.5q33 0 65 -29q38 -31 64.5 -49.5t74 -42.5t108.5 -35.5t136 -11.5q147 0 226 33q57 24 83.5 62t26.5 75q0 61 -39.5 88.5t-124.5 44.5q-32 6 -173 23t-146 18q-75 10 -133 28.5t-110 51t-80.5 87t-28.5 128.5t38 135q49 80 160.5 128 t286.5 48q249 0 422 -111q51 -36 51 -75q0 -35 -24.5 -64t-59.5 -29q-22 0 -63 23q-153 88 -326 88q-90 0 -152 -13.5t-90 -36.5t-38.5 -44t-10.5 -45q0 -60 50.5 -89t154.5 -42q292 -37 303 -39q54 -10 94 -21.5t87 -34.5t77 -53t50 -79t20 -111q0 -98 -53.5 -170.5 t-145.5 -114.5q-128 -59 -346 -59q-174 0 -303 54t-195 122q-30 30 -30 67z" />
<glyph unicode="t" horiz-adv-x="1118" d="M82 1012q0 37 25.5 62.5t60.5 25.5h215v307q0 40 28 68t68 28t68 -28t28 -68v-307h291q37 0 62.5 -25.5t25.5 -60.5q0 -37 -25.5 -62.5t-60.5 -25.5h-293v-566q0 -83 35 -129q23 -32 61.5 -49.5t80.5 -17.5q65 0 131 53q46 37 75 37q38 0 62 -25t24 -63t-32 -70 q-106 -106 -260 -106q-184 0 -293 133q-76 91 -76 248v555h-213q-37 0 -62.5 25.5t-25.5 60.5z" />
<glyph unicode="u" horiz-adv-x="1449" d="M184 535v469q0 40 28.5 68t68.5 28t68 -28t28 -68v-478q0 -116 24 -184q30 -84 102 -131t179 -47q102 0 180.5 45.5t118.5 112.5q61 99 61 221v461q0 40 28.5 68t68.5 28t68 -28t28 -68v-908q0 -40 -28 -68t-68 -28t-68.5 28t-28.5 68v64q-138 -170 -366 -170 q-139 0 -248 56.5t-170 154.5q-74 124 -74 334z" />
<glyph unicode="v" horiz-adv-x="1323" d="M76 1004q0 27 14 50.5t39 35.5q23 10 43 10q27 0 50.5 -14t35.5 -39l365 -740q32 -67 36 -82h5q4 15 36 82l365 740q27 53 86 53q22 0 45 -10q51 -25 51 -86q0 -26 -10 -43l-463 -908q-27 -53 -86 -53h-53q-59 0 -86 53l-463 908q-10 20 -10 43z" />
<glyph unicode="w" horiz-adv-x="1679" d="M123 1004q0 40 28 68t68 28q31 0 56.5 -18t35.5 -50l230 -743q5 -17 8.5 -42.5t4.5 -42.5l1 -16h4q0 60 14 101l193 557q7 24 28 38.5t46 14.5q55 0 73 -53l193 -557q6 -18 9.5 -43.5t4.5 -41.5v-16h4q3 60 15 101l231 743q9 32 34 50t56 18q41 0 68.5 -28t27.5 -68 q0 -19 -4 -31l-297 -907q-9 -29 -35 -47.5t-57 -18.5h-67q-25 0 -46 14.5t-28 38.5l-164 475q-7 20 -11 46t-5 42v17h-4q-3 -62 -17 -105l-164 -475q-7 -24 -27.5 -38.5t-45.5 -14.5h-68q-30 0 -55.5 18.5t-34.5 47.5l-299 907q-4 12 -4 31z" />
<glyph unicode="x" horiz-adv-x="1351" d="M123 96q0 39 29 68l395 407l-359 365q-28 28 -28 68q0 38 28 69q27 27 68 27q44 0 68 -27l352 -381l352 381q24 27 68 27q40 0 67 -27q29 -32 29 -69q0 -39 -29 -68l-358 -365l395 -407q29 -29 29 -68q0 -38 -29 -67t-67 -29q-42 0 -68 29l-389 424l-389 -424 q-26 -29 -68 -29q-38 0 -67 29t-29 67z" />
<glyph unicode="y" horiz-adv-x="1337" d="M59 -260q0 37 25.5 63.5t62.5 26.5q30 0 60 -23q61 -49 119 -49q53 0 98.5 28.5t71.5 78.5l90 176q-21 13 -37 47l-447 873q-10 20 -10 43q0 27 14.5 50.5t38.5 35.5q23 10 43 10q27 0 50.5 -14t35.5 -39l365 -740q34 -71 37 -82h4q3 11 37 82l366 740q24 53 84 53 q22 0 45 -10q25 -12 39.5 -35.5t14.5 -50.5q0 -20 -13 -43l-604 -1180q-49 -95 -133 -147t-182 -52q-130 0 -240 88q-35 28 -35 70z" />
<glyph unicode="z" horiz-adv-x="1298" d="M129 96q0 39 27 66l688 764h-592q-35 0 -61.5 25.5t-26.5 60.5q0 36 26 62t62 26h797q38 0 65 -27q31 -28 31 -69q0 -39 -27 -66l-688 -764h653q35 0 60.5 -25.5t25.5 -60.5q0 -37 -25.5 -62.5t-60.5 -25.5h-858q-38 0 -65 27q-31 28 -31 69z" />
<glyph unicode="{" horiz-adv-x="944" d="M92 731q0 38 26 64t64 26q73 0 126.5 52.5t53.5 138.5v426q0 185 105 293q60 63 149.5 96t196.5 33q38 0 64 -24t26 -58t-26 -58t-64 -24q-132 0 -207 -78q-53 -59 -53 -180v-408q0 -106 -55.5 -188t-139.5 -111q84 -27 139.5 -109t55.5 -190v-407q0 -122 53 -181 q74 -77 207 -77q38 0 64 -24t26 -58t-26 -58t-64 -24q-107 0 -196.5 33t-149.5 96q-105 111 -105 293v428q0 84 -54 137t-126 53q-38 0 -64 25.5t-26 62.5z" />
<glyph unicode="|" horiz-adv-x="591" d="M205 -305v2072q0 38 27 65.5t65 27.5q37 0 63.5 -27.5t26.5 -65.5v-2072q0 -38 -26.5 -65t-63.5 -27q-38 0 -65 27t-27 65z" />
<glyph unicode="}" horiz-adv-x="944" d="M41 -315q0 34 26 58t64 24q133 0 207 77q53 59 53 181v407q0 108 55.5 190t139.5 109q-84 29 -139.5 111t-55.5 188v408q0 121 -53 180q-75 78 -207 78q-38 0 -64 24t-26 58t26 58t64 24q107 0 196.5 -33t149.5 -96q105 -108 105 -293v-426q0 -86 53.5 -138.5 t126.5 -52.5q38 0 64 -26t26 -64q0 -37 -26 -62.5t-64 -25.5q-72 0 -126 -53t-54 -137v-428q0 -182 -105 -293q-60 -63 -149.5 -96t-196.5 -33q-38 0 -64 24t-26 58z" />
<glyph unicode="~" horiz-adv-x="1425" d="M43 561q0 29 16 53q137 224 369 224q202 0 360 -144q41 -40 88.5 -59t120.5 -19q32 0 59.5 5t48.5 16t36 20.5t29 27t20 26t16.5 26.5t12.5 21q22 35 75 35q34 0 60 -26t26 -62q0 -35 -14 -56q-23 -39 -52.5 -73.5t-74 -71t-107 -57.5t-135.5 -21q-114 0 -197.5 35 t-162.5 108q-46 43 -90.5 60.5t-118.5 17.5q-51 0 -91 -14t-67 -41t-38.5 -42.5t-26.5 -41.5q-20 -37 -74 -37q-35 0 -61.5 26.5t-26.5 63.5z" />
<glyph d="M20 920q0 32 22 54.5t56 22.5h158q94 239 293 372.5t483 133.5q261 0 445 -184q32 -32 32 -78q0 -37 -25.5 -63.5t-62.5 -26.5q-39 0 -63 27q-30 31 -53.5 50.5t-66 45t-100 38.5t-128.5 13q-186 0 -325 -85t-216 -243h520q34 0 58 -22t24 -55t-22 -56.5t-54 -23.5h-583 q-20 -78 -23 -152h545q34 0 58 -23t24 -55q0 -34 -22 -57t-54 -23h-543q29 -164 150 -267t307 -103q143 0 268 63.5t213 175.5q37 43 88 43q37 0 63.5 -24.5t26.5 -59.5q0 -39 -22 -69q-118 -148 -289.5 -228.5t-376.5 -80.5q-250 0 -425.5 154.5t-211.5 395.5h-79 q-34 0 -58 23t-24 57q0 33 21.5 55.5t53.5 22.5h82q4 51 23 152h-105q-32 0 -57 24t-25 56z" />
<glyph horiz-adv-x="741" d="M184 168q0 75 53 127.5t128 52.5q86 0 139 -59t53 -150q0 -90 -16 -157.5t-56 -139.5q-67 -120 -159 -184q-44 -27 -72 -27q-30 0 -49 18t-19 46q0 35 31 57q139 100 139 205q0 7 -2 13t-4 9t-7 5.5l-7 3.5t-9 2.5t-8 1.5q-62 15 -98.5 63.5t-36.5 112.5z" />
<glyph d="M70 -141q0 39 25.5 63.5t64.5 24.5q46 0 80 -49q59 -86 147 -86q65 0 114.5 44t63.5 109l164 797h-213q-34 0 -58 25t-24 59t24 59t58 25h248l49 241q31 151 136 240.5t235 89.5q162 0 260 -110q26 -30 26 -60q0 -41 -25.5 -66.5t-66.5 -25.5q-33 2 -69 35 q-30 28 -53.5 39.5t-67.5 11.5q-64 0 -113 -44t-63 -110l-51 -241h202q34 0 58 -25t24 -59t-24 -59t-58 -25h-237l-162 -774q-34 -168 -127 -260.5t-236 -92.5q-47 0 -92 11q-94 25 -166.5 84.5t-72.5 128.5z" />
<glyph horiz-adv-x="1210" d="M184 168q0 75 53 127.5t128 52.5q86 0 139 -59t53 -150q0 -90 -16 -157.5t-56 -139.5q-67 -120 -159 -184q-44 -27 -72 -27q-30 0 -49 18t-19 46q0 35 31 57q139 100 139 205q0 7 -2 13t-4 9t-7 5.5l-7 3.5t-9 2.5t-8 1.5q-62 15 -98.5 63.5t-36.5 112.5zM653 168 q0 75 53 127.5t128 52.5q86 0 139 -59t53 -150q0 -90 -16 -157.5t-56 -139.5q-67 -120 -159 -184q-43 -27 -72 -27q-30 0 -49 18t-19 46q0 35 31 57q139 100 139 205q0 7 -2 13t-4 9t-7 5.5l-7 3.5t-9 2.5t-8 1.5q-62 15 -98.5 63.5t-36.5 112.5z" />
<glyph unicode="&#x85;" horiz-adv-x="1929" d="M139 172q0 76 54 130t129 54t128.5 -54t53.5 -130q0 -75 -53.5 -128.5t-128.5 -53.5t-129 53.5t-54 128.5zM782 172q0 76 54 130t129 54t128.5 -54t53.5 -130q0 -75 -53.5 -128.5t-128.5 -53.5t-129 53.5t-54 128.5zM1425 172q0 76 54 130t129 54t128.5 -54t53.5 -130 q0 -75 -53.5 -128.5t-128.5 -53.5t-129 53.5t-54 128.5z" />
<glyph horiz-adv-x="1404" d="M215 1012q0 37 25.5 62.5t60.5 25.5h305v282q0 40 27.5 68.5t68.5 28.5q40 0 68.5 -28.5t28.5 -68.5v-282h303q37 0 62.5 -25.5t25.5 -62.5q0 -35 -25.5 -60.5t-62.5 -25.5h-303v-830q0 -40 -28.5 -68t-68.5 -28q-41 0 -68.5 28t-27.5 68v830h-305q-35 0 -60.5 25.5 t-25.5 60.5z" />
<glyph horiz-adv-x="1404" d="M215 467q0 35 25.5 60.5t60.5 25.5h305v373h-305q-35 0 -60.5 25.5t-25.5 60.5q0 37 25.5 62.5t60.5 25.5h305v282q0 40 27.5 68.5t68.5 28.5q40 0 68.5 -28.5t28.5 -68.5v-282h303q37 0 62.5 -25.5t25.5 -62.5q0 -35 -25.5 -60.5t-62.5 -25.5h-303v-373h303 q37 0 62.5 -25.5t25.5 -60.5q0 -37 -25.5 -62.5t-62.5 -25.5h-303v-283q0 -40 -28.5 -68t-68.5 -28q-41 0 -68.5 28t-27.5 68v283h-305q-35 0 -60.5 25.5t-25.5 62.5z" />
<glyph horiz-adv-x="892" d="M20 1286q0 28 23 51l309 342q24 26 43 36.5t51 10.5t52.5 -11t42.5 -36l309 -342q22 -22 22 -51q0 -20 -12 -35q-19 -22 -47 -22q-21 0 -39 12l-328 238l-327 -238q-18 -12 -39 -12q-28 0 -47 22q-13 16 -13 35z" />
<glyph horiz-adv-x="2562" d="M195 1178q0 134 94.5 228.5t228.5 94.5q133 0 227.5 -94.5t94.5 -228.5t-94 -228t-228 -94t-228.5 94.5t-94.5 227.5zM350 1178q0 -70 48.5 -121t119.5 -51q70 0 118 51t48 121q0 71 -48 121.5t-118 50.5q-71 0 -119.5 -50.5t-48.5 -121.5zM358 -160q0 22 11 41l956 1772 q22 43 68 43q21 0 41 -10q43 -24 43 -70q0 -17 -13 -39l-956 -1772q-22 -43 -66 -43q-27 0 -51 17q-33 26 -33 61zM995 295q0 132 93 224.5t225 92.5q131 0 223 -92.5t92 -224.5q0 -131 -92 -223t-223 -92q-132 0 -225 92t-93 223zM1147 295q0 -68 48 -118t118 -50 q68 0 116 50t48 118q0 70 -48 120t-116 50q-70 0 -118 -50t-48 -120zM1735 295q0 132 92 224.5t223 92.5q132 0 224.5 -92.5t92.5 -224.5q0 -131 -92.5 -223t-224.5 -92q-130 0 -222.5 92t-92.5 223zM1886 295q0 -68 48 -118t116 -50q70 0 118 50t48 118q0 70 -48 120 t-118 50q-68 0 -116 -50t-48 -120z" />
<glyph horiz-adv-x="1572" d="M164 297q0 43 29.5 74.5t74.5 31.5q44 0 86 -45q184 -196 445 -196q235 0 338 110q61 66 61 158q0 176 -254 227q-37 7 -111 19.5t-148.5 24.5t-86.5 14q-213 37 -295 119q-106 106 -106 266q0 64 27 125.5t73 107.5q170 170 508 170q255 0 473 -137q65 -42 65 -92 q0 -40 -27.5 -70t-68.5 -30q-36 0 -76 28q-173 121 -368 121q-244 0 -346 -102q-54 -54 -54 -117q0 -84 52.5 -130.5t173.5 -68.5q98 -18 352 -59q225 -40 330 -154q50 -56 74 -112.5t24 -137.5q0 -187 -121 -305q-163 -160 -481 -160q-383 0 -606 242q-37 37 -37 78z M360 2050q0 19 13 35q19 22 47 22q21 0 39 -12l327 -237l328 237q18 12 39 12q28 0 47 -22q12 -15 12 -35q0 -29 -22 -51l-309 -342q-24 -26 -43.5 -36.5t-51.5 -10.5t-52 11t-42 36l-309 342q-23 23 -23 51z" />
<glyph horiz-adv-x="784" d="M143 551q0 10 2 20t3.5 15.5t8.5 16t8.5 12.5t12 15t12.5 15l336 420q26 33 56 33q21 0 39 -15q20 -17 20 -45q0 -14 -10 -34l-250 -453l250 -455q10 -20 10 -35q0 -28 -20 -45q-17 -14 -39 -14q-30 0 -56 33l-336 420q-3 5 -12.5 16t-12 15t-8.5 13.5t-8 15.5t-4 16 t-2 20z" />
<glyph horiz-adv-x="1789" d="M174 741q0 153 42.5 289t118 235.5t186 157.5t239.5 58h811q38 0 65 -27t27 -65t-27 -65.5t-65 -27.5h-492v-462h301q38 0 65.5 -27.5t27.5 -65.5t-27.5 -65t-65.5 -27h-301v-465h492q38 0 65 -27t27 -65t-27 -65t-65 -27h-811q-172 0 -307 99.5t-207 267.5t-72 374z M379 741q0 -133 31.5 -241t85 -176t121.5 -104t143 -36h114v1112h-114q-75 0 -143 -36t-121.5 -103.5t-85 -175t-31.5 -240.5z" />
<glyph horiz-adv-x="1486" d="M123 96q0 42 24 72l908 1128h-789q-38 0 -65 27.5t-27 65.5t27 65t65 27h994q50 0 77 -39q17 -26 17 -64q0 -35 -31 -73l-901 -1121h850q38 0 65 -27t27 -65t-27 -65t-65 -27h-1055q-42 0 -68 27.5t-26 68.5zM317 2050q0 19 13 35q19 22 47 22q21 0 39 -12l327 -237 l328 237q18 12 39 12q28 0 47 -22q12 -15 12 -35q0 -29 -22 -51l-309 -342q-24 -26 -43.5 -36.5t-51.5 -10.5t-52 11t-42 36l-309 342q-23 23 -23 51z" />
<glyph horiz-adv-x="741" d="M184 987q0 90 16 157.5t56 139.5q66 119 160 184q44 27 71 27q31 0 49.5 -17.5t18.5 -45.5q0 -36 -31 -58q-139 -100 -139 -205q0 -9 2 -15t7 -9.5t7.5 -4.5t11 -3t9.5 -2q62 -15 98.5 -64t36.5 -113q0 -75 -52.5 -127.5t-127.5 -52.5q-87 0 -140 59t-53 150z" />
<glyph horiz-adv-x="741" d="M184 1307q0 75 53 127.5t128 52.5q86 0 139 -59t53 -150q0 -90 -16 -157.5t-56 -139.5q-67 -120 -159 -184q-44 -27 -72 -27q-30 0 -49 18t-19 46q0 35 31 57q139 100 139 205q0 9 -2 15t-7 9.5t-7.5 4.5t-11 3t-9.5 2q-62 15 -98.5 64t-36.5 113z" />
<glyph horiz-adv-x="1210" d="M184 987q0 90 16 157.5t56 139.5q66 119 160 184q44 27 71 27q31 0 49.5 -17.5t18.5 -45.5q0 -36 -31 -58q-139 -100 -139 -205q0 -9 2 -15t7 -9.5t7.5 -4.5t11 -3t9.5 -2q62 -15 98.5 -64t36.5 -113q0 -75 -52.5 -127.5t-127.5 -52.5q-87 0 -140 59t-53 150zM653 987 q0 90 16 157.5t56 139.5q66 119 160 184q44 27 71 27q31 0 49.5 -17.5t18.5 -45.5q0 -36 -31 -58q-139 -100 -139 -205q0 -9 2 -15t7 -9.5t7.5 -4.5t11 -3t9.5 -2q62 -15 98.5 -64t36.5 -113q0 -75 -52.5 -127.5t-127.5 -52.5q-87 0 -140 59t-53 150z" />
<glyph horiz-adv-x="1210" d="M184 1307q0 75 53 127.5t128 52.5q86 0 139 -59t53 -150q0 -90 -16 -157.5t-56 -139.5q-67 -120 -159 -184q-44 -27 -72 -27q-30 0 -49 18t-19 46q0 35 31 57q139 100 139 205q0 9 -2 15t-7 9.5t-7.5 4.5t-11 3t-9.5 2q-62 15 -98.5 64t-36.5 113zM653 1307 q0 75 53 127.5t128 52.5q86 0 139 -59t53 -150q0 -90 -16 -157.5t-56 -139.5q-67 -120 -159 -184q-43 -27 -72 -27q-30 0 -49 18t-19 46q0 35 31 57q139 100 139 205q0 9 -2 15t-7 9.5t-7.5 4.5t-11 3t-9.5 2q-62 15 -98.5 64t-36.5 113z" />
<glyph horiz-adv-x="1114" d="M215 739q0 141 100.5 241.5t241.5 100.5q142 0 242 -100.5t100 -241.5q0 -143 -99.5 -242.5t-242.5 -99.5q-141 0 -241.5 100t-100.5 242z" />
<glyph horiz-adv-x="1282" d="M41 563q0 37 25.5 62.5t62.5 25.5h1024q37 0 62.5 -25.5t25.5 -62.5t-25.5 -62.5t-62.5 -25.5h-1024q-37 0 -62.5 25.5t-25.5 62.5z" />
<glyph horiz-adv-x="2969" d="M225 563q0 37 25.5 62.5t62.5 25.5h2343q37 0 62.5 -25.5t25.5 -62.5t-25.5 -62.5t-62.5 -25.5h-2343q-37 0 -62.5 25.5t-25.5 62.5z" />
<glyph horiz-adv-x="940" d="M20 1370q0 59 80 135q77 74 195 74q11 0 22 -0.5t24.5 -3t21.5 -3.5t24 -5.5t22 -6t25.5 -8t23.5 -8t27.5 -9.5t26.5 -9q8 -3 24.5 -9t25 -9t22.5 -7.5t23 -6.5t20.5 -3.5t21.5 -1.5q11 0 35 4q50 17 90 68q26 28 66 28q36 0 58 -25.5t22 -54.5q0 -59 -80 -139 q-77 -74 -197 -74q-14 0 -28 1t-30.5 5t-27 6t-32 9t-29 9.5t-34.5 12t-34 11.5q-10 4 -36 13.5t-38 13.5t-30.5 8t-32.5 4t-35 -7q-58 -19 -90 -63q-22 -31 -64 -31q-35 0 -58.5 25.5t-23.5 56.5z" />
<glyph horiz-adv-x="1769" d="M174 1427q0 22 15.5 38t37.5 16h437q23 0 39 -16t16 -38q0 -23 -16 -38t-39 -15h-160v-524q0 -23 -17.5 -40t-40.5 -17q-25 0 -42 17t-17 40v524h-160q-22 0 -37.5 15t-15.5 38zM813 850v573q0 24 16.5 41t40.5 17h45q14 0 28 -8.5t20 -22.5l153 -332l154 332 q16 31 49 31h45q23 0 40 -17.5t17 -40.5v-573q0 -23 -18 -40t-41 -17q-24 0 -40.5 16.5t-16.5 40.5v455q-23 -58 -75.5 -161t-64.5 -128q-15 -31 -49 -31q-35 0 -47 31q-19 44 -69 140t-72 149v-455q0 -24 -16 -40.5t-40 -16.5q-23 0 -41 17t-18 40z" />
<glyph horiz-adv-x="1378" d="M152 233q0 38 25.5 66.5t68.5 28.5q33 0 65 -29q38 -31 64.5 -49.5t74 -42.5t108.5 -35.5t136 -11.5q147 0 226 33q57 24 83.5 62t26.5 75q0 61 -39.5 88.5t-124.5 44.5q-32 6 -173 23t-146 18q-75 10 -133 28.5t-110 51t-80.5 87t-28.5 128.5t38 135q49 80 160.5 128 t286.5 48q249 0 422 -111q51 -36 51 -75q0 -35 -24.5 -64t-59.5 -29q-22 0 -63 23q-153 88 -326 88q-90 0 -152 -13.5t-90 -36.5t-38.5 -44t-10.5 -45q0 -60 50.5 -89t154.5 -42q292 -37 303 -39q54 -10 94 -21.5t87 -34.5t77 -53t50 -79t20 -111q0 -98 -53.5 -170.5 t-145.5 -114.5q-128 -59 -346 -59q-174 0 -303 54t-195 122q-30 30 -30 67zM262 1669q0 20 12 35q19 22 48 22q20 0 38 -12l328 -237l328 237q18 12 39 12q28 0 47 -22q12 -15 12 -35q0 -29 -22 -51l-310 -342q-24 -26 -43 -36.5t-51 -10.5t-52 11t-42 36l-309 342 q-23 23 -23 51z" />
<glyph horiz-adv-x="784" d="M143 61q0 13 11 35l249 455l-249 453q-11 22 -11 34q0 28 21 45q18 15 39 15q29 0 55 -33l336 -420q3 -4 11 -13t10.5 -12.5t8 -11.5t7.5 -12.5t5 -12.5t4 -15.5t1 -16.5q0 -10 -2 -20t-4 -16t-8 -15.5t-8.5 -13.5t-12 -15t-12.5 -16l-336 -420q-26 -33 -55 -33 q-22 0 -39 14q-21 17 -21 45z" />
<glyph horiz-adv-x="2228" d="M143 549q0 154 70.5 282.5t194.5 203.5t274 75q139 0 254.5 -63t189.5 -173q73 110 189.5 173t255.5 63q220 0 368 -154t148 -387q0 -37 -24.5 -63.5t-65.5 -26.5h-770q19 -135 113.5 -225t226.5 -90q90 0 156.5 30t131.5 95q37 37 72 37q36 0 61 -25.5t25 -64.5 q0 -34 -26 -64q-78 -88 -186 -135t-224 -47q-143 0 -260.5 62.5t-190.5 172.5q-74 -110 -189 -172.5t-253 -62.5q-151 0 -275.5 75t-195 203t-70.5 281zM336 551q0 -165 95.5 -276t250.5 -111q156 0 252 110.5t96 274.5q0 165 -95.5 276t-250.5 111q-156 0 -252 -110.5 t-96 -274.5zM1231 645h661q-14 129 -102 212t-217 83t-226.5 -81t-115.5 -214z" />
<glyph horiz-adv-x="1298" d="M129 96q0 39 27 66l688 764h-592q-35 0 -61.5 25.5t-26.5 60.5q0 36 26 62t62 26h797q38 0 65 -27q31 -28 31 -69q0 -39 -27 -66l-688 -764h653q35 0 60.5 -25.5t25.5 -60.5q0 -37 -25.5 -62.5t-60.5 -25.5h-858q-38 0 -65 27q-31 28 -31 69zM205 1669q0 20 12 35 q19 22 47 22q21 0 39 -12l328 -237l327 237q18 12 39 12q28 0 47 -22q13 -16 13 -35q0 -28 -23 -51l-309 -342q-24 -26 -43 -36.5t-51 -10.5t-52 11t-42 36l-310 342q-22 22 -22 51z" />
<glyph horiz-adv-x="1388" d="M90 1378q0 41 31 72t72 31q55 0 83 -45l422 -643l412 643q29 45 86 45q41 0 71.5 -31t30.5 -72q0 -30 -18 -57l-492 -709q9 -432 9 -510q0 -43 -30 -72.5t-73 -29.5t-72.5 29.5t-29.5 72.5l8 510l-491 709q-19 29 -19 57zM276 1823q0 60 44 103.5t104 43.5t103.5 -43.5 t43.5 -103.5t-43.5 -104t-103.5 -44t-104 44t-44 104zM827 1823q0 60 44 103.5t104 43.5t103.5 -43.5t43.5 -103.5t-43.5 -104t-103.5 -44t-104 44t-44 104z" />
<glyph unicode="&#xa1;" horiz-adv-x="940" d="M287 1309q0 75 54 128.5t130 53.5q75 0 128.5 -53.5t53.5 -128.5q0 -76 -53.5 -130.5t-128.5 -54.5q-76 0 -130 54t-54 131zM352 106v5q0 19 13.5 384t13.5 402q0 38 27 65t65 27q37 0 63.5 -27t26.5 -65q0 -37 14.5 -402.5t14.5 -383.5v-5q0 -43 -36.5 -74.5 t-82.5 -31.5t-82.5 31.5t-36.5 74.5z" />
<glyph unicode="&#xa2;" d="M244 549q0 209 135 365.5t338 189.5v192q0 35 25.5 60.5t60.5 25.5t60.5 -25.5t25.5 -60.5v-192q113 -17 207.5 -75.5t156.5 -147.5q19 -30 19 -56q0 -38 -27.5 -65t-64.5 -27q-51 0 -76 39q-77 120 -215 154v-752q138 35 217 158q21 35 72 35q38 0 65 -27.5t27 -65.5 q0 -33 -19 -55q-64 -89 -157.5 -147.5t-204.5 -75.5v-184q0 -35 -25.5 -60.5t-60.5 -25.5t-60.5 25.5t-25.5 60.5v184q-133 21 -241 99t-170 197.5t-62 256.5zM436 551q0 -138 77.5 -242t203.5 -135v752q-126 -31 -203.5 -134.5t-77.5 -240.5z" />
<glyph unicode="&#xa3;" d="M193 731q0 35 25 58.5t61 23.5h73q-16 70 -22 115t-6 119q0 200 112 315q133 139 373 139q77 0 144 -19.5t115.5 -53t83 -68t60.5 -74.5q17 -27 17 -55q0 -38 -27.5 -66t-64.5 -28q-56 0 -80 39q-15 24 -29.5 41.5t-44 44t-74.5 41t-100 14.5q-151 0 -221 -76 q-64 -70 -64 -194q0 -99 31 -234h283q36 0 61 -23.5t25 -58.5q0 -36 -25 -60t-61 -24h-246q6 -76 6 -155q0 -86 -27.5 -168.5t-78.5 -118.5q87 33 196 33q78 0 185.5 -32t154.5 -32q54 0 96 15t109 59q24 16 53 16q51 0 76 -31q24 -27 24 -67q0 -52 -47 -80 q-158 -98 -321 -98q-63 0 -171.5 32.5t-193.5 32.5q-78 0 -143.5 -13.5t-113 -26.5t-81.5 -13q-42 0 -68 25t-26 61q0 43 41 84q4 5 14 15t14.5 15t13.5 15.5t15.5 19.5t16 23.5t18.5 30.5q52 89 52 198q0 82 -17 160h-110q-36 0 -61 24t-25 60z" />
<glyph unicode="&#xa4;" d="M311 549q0 144 86 264l-59 61q-23 23 -23 56q0 30 23 53t55 23q33 0 53 -23l58 -63q113 77 254 77q138 0 254 -77l57 63q20 23 53 23t56 -23q22 -22 22 -53q0 -34 -22 -56l-58 -57q88 -118 88 -266q0 -146 -86 -266l56 -56q22 -22 22 -55q0 -31 -22 -53q-23 -23 -56 -23 t-53 23l-55 59q-118 -78 -256 -78q-140 0 -256 80l-56 -61q-20 -23 -53 -23q-32 0 -55 23t-23 53q0 32 23 55l57 58q-84 117 -84 262zM479 551q0 -124 78.5 -208.5t200.5 -84.5t202 84.5t80 208.5t-80 208.5t-202 84.5q-121 0 -200 -85t-79 -208z" />
<glyph unicode="&#xa5;" d="M156 1378q0 56 45 84q29 19 57 19q56 0 84 -45l422 -643l412 643q29 45 86 45q28 0 57 -19q45 -28 45 -84q0 -30 -18 -57l-410 -596h188q29 0 50.5 -20.5t21.5 -49.5t-21.5 -50t-50.5 -21h-266v-129h266q29 0 50.5 -21.5t21.5 -50.5t-21.5 -49.5t-50.5 -20.5h-264 q2 -182 2 -211q0 -43 -29.5 -72.5t-72.5 -29.5t-73 29.5t-30 72.5l2 211h-264q-29 0 -49 20.5t-20 49.5q0 30 20 51t49 21h267v129h-267q-29 0 -49 21t-20 50t20 49.5t49 20.5h189l-410 596q-18 27 -18 57z" />
<glyph unicode="&#xa6;" horiz-adv-x="561" d="M184 -127v514q0 40 28.5 68t68.5 28t68 -28t28 -68v-514q0 -40 -28 -68t-68 -28t-68.5 28t-28.5 68zM184 1069v516q0 40 28.5 68t68.5 28t68 -28t28 -68v-516q0 -40 -28 -68t-68 -28t-68.5 28t-28.5 68z" />
<glyph unicode="&#xa7;" horiz-adv-x="1540" d="M297 729q0 57 42 118.5t110 92.5q-28 32 -38 44.5t-25.5 40t-20.5 58t-5 72.5q0 154 122.5 250t297.5 96q112 0 193 -42.5t119 -88.5q32 -40 32 -76q0 -30 -23.5 -52.5t-53.5 -22.5q-32 0 -62 30q-44 47 -92 69.5t-113 22.5q-133 0 -196 -81q-37 -46 -37 -105 q0 -67 31 -106q34 -45 110 -66l138 -34.5t143 -35.5q144 -38 209 -107t65 -196q0 -48 -20.5 -89.5t-49 -65.5t-52 -37t-36.5 -15q53 -55 80 -107.5t27 -133.5q0 -71 -43.5 -151t-112.5 -126q-53 -35 -115.5 -54t-162.5 -19q-60 0 -116.5 18t-99 48t-71.5 56t-51 54 q-31 43 -31 80q0 30 22.5 53.5t55.5 23.5q44 0 74 -43q97 -131 217 -131q69 0 105.5 9.5t70.5 35.5q29 24 47 65.5t18 78.5q0 75 -36 127q-31 41 -121 65q-170 47 -283 72q-57 13 -109.5 42t-80.5 62q-37 42 -54.5 86.5t-17.5 114.5zM473 729q0 -38 8 -57.5t29 -42.5 q29 -37 98 -54q10 -3 162.5 -37.5t173.5 -39.5q50 5 87.5 31.5t37.5 76.5q0 64 -33 103q-27 33 -104 53q-202 54 -344 86q-43 -5 -79 -40.5t-36 -78.5z" />
<glyph unicode="&#xa8;" horiz-adv-x="886" d="M20 1442q0 60 44 103.5t104 43.5t103.5 -43.5t43.5 -103.5t-43.5 -104t-103.5 -44t-104 44t-44 104zM571 1442q0 60 44 103.5t104 43.5t103.5 -43.5t43.5 -103.5t-43.5 -104t-103.5 -44t-104 44t-44 104z" />
<glyph unicode="&#xa9;" horiz-adv-x="1757" d="M133 741q0 154 59.5 295t159.5 243.5t238 163t289 60.5q121 0 234.5 -38.5t205 -109.5t161 -165t107 -210t37.5 -239q0 -103 -27 -201.5t-75 -182t-117 -154t-150.5 -119.5t-178 -76.5t-197.5 -27.5q-151 0 -289 60.5t-238 162.5t-159.5 243t-59.5 295zM244 741 q0 -180 87 -331.5t233 -238.5t315 -87q126 0 243 51.5t202.5 139t137 209.5t51.5 257t-51.5 257t-137 209t-202.5 138.5t-243 51.5t-243 -51.5t-203 -138.5t-137.5 -209t-51.5 -257zM506 741q0 161 115 274t278 113q99 0 181.5 -39.5t133.5 -115.5q15 -23 15 -45 q0 -31 -21.5 -52.5t-52.5 -21.5q-48 0 -76 45q-29 43 -69.5 67.5t-110.5 24.5q-105 0 -173.5 -72.5t-68.5 -177.5q0 -104 68.5 -175.5t173.5 -71.5q39 0 71 8.5t55 25t36 29.5t29 33q28 39 67 39q29 0 51.5 -21.5t22.5 -50.5q0 -24 -14 -45q-50 -76 -134.5 -117t-183.5 -41 q-163 0 -278 113.5t-115 273.5z" />
<glyph unicode="&#xaa;" horiz-adv-x="1009" d="M133 1149q0 152 97.5 252t248.5 100q127 0 203 -92q-2 16 -2 23q0 29 23.5 49t54.5 20q32 0 55 -23t23 -55v-549q0 -32 -23 -54.5t-55 -22.5q-31 0 -54.5 20.5t-23.5 48.5l2 23q-76 -92 -207 -92q-151 0 -246.5 99.5t-95.5 252.5zM287 1157q0 -99 53 -162t145 -63 q89 0 143 55t54 152v20q0 93 -55.5 154t-141.5 61q-89 0 -143.5 -63t-54.5 -154z" />
<glyph unicode="&#xab;" horiz-adv-x="1355" d="M184 551q0 10 2 20t3.5 15.5t8.5 16t8.5 12.5t12 15t12.5 15l336 420q26 33 56 33q21 0 39 -15q20 -17 20 -45q0 -14 -10 -34l-250 -453l250 -455q10 -20 10 -35q0 -28 -20 -45q-17 -14 -39 -14q-30 0 -56 33l-336 420q-3 5 -12.5 16t-12 15t-8.5 13.5t-8 15.5t-4 16 t-2 20zM674 551q0 10 2 20t3.5 15.5t8.5 16t8.5 12.5t12 15t12.5 15l336 420q26 33 55 33q21 0 39 -15q20 -17 20 -45q0 -14 -10 -34l-250 -453l250 -455q10 -20 10 -35q0 -28 -20 -45q-17 -14 -39 -14q-29 0 -55 33l-336 420q-3 5 -12.5 16t-12 15t-8.5 13.5t-8 15.5t-4 16 t-2 20z" />
<glyph unicode="&#xac;" horiz-adv-x="1425" d="M119 563q0 38 27 65t65 27h975q42 0 69.5 -29t32.5 -73v-334q0 -42 -30 -72t-72 -30t-71.5 29.5t-29.5 72.5v252h-874q-38 0 -65 27t-27 65z" />
<glyph unicode="&#xad;" horiz-adv-x="1202" d="M215 563q0 37 25.5 62.5t60.5 25.5h600q35 0 60.5 -25.5t25.5 -62.5t-25.5 -62.5t-60.5 -25.5h-600q-35 0 -60.5 25.5t-25.5 62.5z" />
<glyph unicode="&#xae;" horiz-adv-x="1085" d="M154 1096q0 161 114 275t275 114t275 -114t114 -275t-114 -275t-275 -114t-275 114t-114 275zM223 1096q0 -135 92.5 -227.5t227.5 -92.5t227 92.5t92 227.5t-92 227t-227 92t-227.5 -92t-92.5 -227zM399 942v305q0 13 10.5 24t24.5 11h144q57 0 98 -30t41 -85 q0 -87 -84 -110l72 -92q6 -9 6 -21q0 -15 -10 -26t-25 -11q-16 0 -27 15l-96 127h-84v-107q0 -14 -10.5 -24.5t-24.5 -10.5t-24.5 10.5t-10.5 24.5zM469 1114h111q67 0 67 53q0 52 -69 52h-109v-105z" />
<glyph unicode="&#xaf;" horiz-adv-x="913" d="M20 1442q0 38 27.5 65t65.5 27h688q38 0 65 -27t27 -65t-27 -65t-65 -27h-688q-38 0 -65.5 27t-27.5 65z" />
<glyph unicode="&#xb0;" horiz-adv-x="1001" d="M154 1165q0 140 102.5 238t243.5 98t244.5 -97.5t103.5 -238.5q0 -142 -103 -239t-245 -97t-244 96.5t-102 239.5zM311 1165q0 -76 56 -132t133 -56q76 0 132 55.5t56 132.5t-56 133t-132 56t-132.5 -56t-56.5 -133z" />
<glyph unicode="&#xb1;" horiz-adv-x="1425" d="M133 72q0 38 27 65t65 27h975q38 0 65 -27t27 -65t-27 -65t-65 -27h-975q-38 0 -65 27t-27 65zM133 702q0 38 27 65.5t65 27.5h396v252q0 38 27 65t65 27t65 -27t27 -65v-252h395q38 0 65 -27.5t27 -65.5t-27 -65t-65 -27h-395v-252q0 -38 -27 -65t-65 -27t-65 27t-27 65 v252h-396q-38 0 -65 27t-27 65z" />
<glyph unicode="&#xb2;" horiz-adv-x="1269" d="M397 942v2q0 43 12 77t38 59t47.5 40t58.5 35q5 3 109 49q75 35 75 94q0 42 -29.5 69.5t-74.5 27.5q-44 0 -68 -23.5t-30 -52.5q-5 -22 -21 -36.5t-39 -14.5q-25 0 -42 17t-17 42q0 50 35.5 92t84.5 63t97 21q93 0 157 -56.5t64 -148.5q0 -42 -13.5 -75.5t-40 -57 t-51 -38.5t-59.5 -31q-9 -4 -34 -14.5t-39 -17.5t-33.5 -18t-32 -23t-19.5 -26h281q23 0 40 -16t17 -39q0 -24 -16.5 -40.5t-40.5 -16.5h-360q-23 0 -39.5 16.5t-16.5 40.5z" />
<glyph unicode="&#xb3;" horiz-adv-x="1060" d="M164 975q0 23 17 40t42 17q15 0 27 -6q64 -33 151 -33q71 0 106.5 23.5t35.5 62.5q0 86 -162 86q-22 0 -37.5 16t-15.5 36q0 21 15 35t38 14q131 0 131 61q0 68 -129 68q-62 0 -107 -27q-16 -8 -30 -8q-24 0 -41 17t-17 42q0 37 31 51q67 33 164 33q115 0 180.5 -46 t65.5 -130q0 -61 -58 -102q91 -52 91 -146q0 -91 -69.5 -142.5t-191.5 -51.5q-131 0 -206 37q-31 16 -31 53z" />
<glyph unicode="&#xb4;" horiz-adv-x="585" d="M20 1286q0 28 23 51l322 357q28 32 81 32q50 0 84.5 -34.5t34.5 -83.5q0 -63 -41 -90l-405 -277q-18 -12 -39 -12q-28 0 -47 22q-13 16 -13 35z" />
<glyph unicode="&#xb5;" horiz-adv-x="1523" d="M10 -293q0 17 4 33l301 1194h-77q-34 0 -58 24.5t-24 59.5q0 34 24 58t58 24h196q37 0 64.5 -25.5t27.5 -64.5q0 -17 -2 -25l-110 -434q-17 -70 -17 -115q0 -121 71.5 -196.5t197.5 -75.5q154 0 254.5 101.5t142.5 271.5l123 483q10 37 24 51q29 29 68 29q37 0 64.5 -26 t27.5 -66q0 -7 -4 -27l-201 -815h76q34 0 58 -24.5t24 -59.5q0 -34 -24 -58t-58 -24h-213q-33 0 -54.5 20.5t-21.5 51.5q0 8 4 24l9 29q-150 -135 -355 -135q-187 0 -295 172l-118 -471q-8 -34 -35 -53q-24 -19 -62 -19q-36 0 -63 28t-27 60z" />
<glyph unicode="&#xb6;" horiz-adv-x="1464" d="M113 1083q0 155 108 260q66 66 165 102t210 36h518q38 0 66 -28.5t28 -66.5v-1288q0 -38 -28 -66t-66 -28t-66 28t-28 66v1202h-227v-1202q0 -38 -28.5 -66t-66.5 -28t-66 28t-28 66v582q-124 0 -223 35t-162 98q-106 106 -106 270z" />
<glyph unicode="&#xb7;" horiz-adv-x="796" d="M215 729q0 75 53.5 128.5t128.5 53.5q76 0 130.5 -53.5t54.5 -128.5t-54.5 -128.5t-130.5 -53.5q-75 0 -128.5 53.5t-53.5 128.5z" />
<glyph unicode="&#xb8;" horiz-adv-x="509" d="M20 -307q0 22 17 39q14 14 37 14q14 0 26 -6q44 -22 58 -27q55 -20 100 -20q94 0 94 69q0 31 -24 48q-26 18 -76 18q-12 0 -25 -2t-16 -2q-9 0 -17 7.5t-8 21.5v151h70v-90q33 8 74 8q67 0 113 -47.5t46 -114.5q0 -80 -51 -125q-60 -53 -166 -53q-81 0 -161 31 q-52 20 -71.5 37.5t-19.5 42.5z" />
<glyph unicode="&#xb9;" horiz-adv-x="1269" d="M401 1315q0 27 23 43l194 137q13 8 31 8h6q26 0 44 -17t18 -42v-500q0 -25 -18 -42t-44 -17q-25 0 -42 17t-17 42v406l-111 -78q-13 -10 -30 -10q-27 0 -43 22q-11 18 -11 31z" />
<glyph unicode="&#xba;" horiz-adv-x="970" d="M133 1149q0 146 103 249t249 103t249.5 -103t103.5 -249t-103.5 -249t-249.5 -103t-249 103t-103 249zM287 1149q0 -91 55 -155t143 -64t143.5 64t55.5 155q0 90 -56 154.5t-143 64.5q-88 0 -143 -64t-55 -155z" />
<glyph unicode="&#xbb;" horiz-adv-x="1355" d="M184 61q0 13 11 35l249 455l-249 453q-11 22 -11 34q0 28 21 45q18 15 39 15q29 0 55 -33l336 -420q3 -4 11 -13t10.5 -12.5t8 -11.5t7.5 -12.5t5 -12.5t4 -15.5t1 -16.5q0 -10 -2 -20t-4 -16t-8 -15.5t-8.5 -13.5t-12 -15t-12.5 -16l-336 -420q-26 -33 -55 -33 q-22 0 -39 14q-21 17 -21 45zM674 61q0 15 10 35l250 455l-250 453q-10 20 -10 34q0 28 20 45q18 15 39 15q29 0 55 -33l336 -420q3 -4 11 -13t10.5 -12.5t8 -11.5t7.5 -12.5t5 -12.5t4 -15.5t1 -16.5q0 -10 -2 -20t-4 -16t-8 -15.5t-8.5 -13.5t-12 -15t-12.5 -16l-336 -420 q-26 -33 -55 -33q-22 0 -39 14q-20 17 -20 45z" />
<glyph unicode="&#xbc;" horiz-adv-x="1269" d="M164 741q0 25 17 42.5t42 17.5h824q25 0 43 -17.5t18 -42.5q0 -26 -18 -43.5t-43 -17.5h-824q-25 0 -42 17.5t-17 43.5zM352 168v14q0 18 10 35l269 354q17 23 45 23h33q25 0 42 -17t17 -42v-316h20q24 0 40 -15t16 -38t-16.5 -39t-39.5 -16h-20v-74q0 -25 -17 -42.5 t-42 -17.5q-26 0 -44 17.5t-18 42.5v74h-239q-23 0 -39.5 17t-16.5 40zM401 1315q0 27 23 43l194 137q13 8 31 8h6q26 0 44 -17t18 -42v-500q0 -25 -18 -42t-44 -17q-25 0 -42 17t-17 42v406l-111 -78q-13 -10 -30 -10q-27 0 -43 22q-11 18 -11 31zM489 219h158v209z" />
<glyph unicode="&#xbd;" horiz-adv-x="1269" d="M164 741q0 25 17 42.5t42 17.5h824q25 0 43 -17.5t18 -42.5q0 -26 -18 -43.5t-43 -17.5h-824q-25 0 -42 17.5t-17 43.5zM397 35v2q0 43 12 77t38 59t47.5 40t58.5 35q5 3 109 49q75 35 75 94q0 42 -29.5 69t-74.5 27q-77 0 -101 -75q-17 -50 -57 -50q-25 0 -42 16.5 t-17 41.5q0 50 35.5 92t84.5 63t97 21q93 0 157 -56.5t64 -148.5q0 -42 -14 -75.5t-40 -57.5t-50.5 -39t-59.5 -31q-6 -3 -42 -18t-50.5 -22.5t-35.5 -24t-30 -33.5h281q23 0 40 -16t17 -39q0 -25 -17 -41.5t-40 -16.5h-360q-23 0 -39.5 16.5t-16.5 41.5zM401 1315 q0 27 23 43l194 137q13 8 31 8h6q26 0 44 -17t18 -42v-500q0 -25 -18 -42t-44 -17q-25 0 -42 17t-17 42v406l-111 -78q-13 -10 -30 -10q-27 0 -43 22q-11 18 -11 31z" />
<glyph unicode="&#xbe;" horiz-adv-x="1269" d="M164 741q0 25 17 42.5t42 17.5h824q25 0 43 -17.5t18 -42.5q0 -26 -18 -43.5t-43 -17.5h-824q-25 0 -42 17.5t-17 43.5zM352 168v14q0 18 10 35l269 354q17 23 45 23h33q25 0 42 -17t17 -42v-316h20q24 0 40 -15t16 -38t-16.5 -39t-39.5 -16h-20v-74q0 -25 -17 -42.5 t-42 -17.5q-26 0 -44 17.5t-18 42.5v74h-239q-23 0 -39.5 17t-16.5 40zM387 975q0 23 17 40t42 17q15 0 27 -6q64 -33 152 -33q70 0 105.5 23.5t35.5 62.5q0 86 -162 86q-22 0 -37.5 16t-15.5 36q0 21 15 35t38 14q131 0 131 61q0 68 -129 68q-61 0 -106 -27q-16 -8 -31 -8 q-23 0 -40 17t-17 42q0 38 30 51q67 33 164 33q115 0 180.5 -46t65.5 -130q0 -61 -57 -102q90 -51 90 -146q0 -91 -69 -142.5t-191 -51.5q-132 0 -207 37q-31 16 -31 53zM489 219h158v209z" />
<glyph unicode="&#xbf;" horiz-adv-x="1372" d="M174 381q0 107 39.5 166.5t130.5 114.5l182 108q2 2 29.5 17t35.5 21.5t19 26t11 44.5v24q0 42 26.5 65t61.5 23q34 0 59 -23.5t25 -62.5v-61q0 -54 -29 -98t-96 -84l-201 -121q-100 -61 -100 -158q0 -95 87.5 -156t227.5 -61q133 0 223 64.5t101 156.5q5 37 31.5 61.5 t64.5 24.5q40 0 68 -28t28 -68q0 -88 -47.5 -163t-123.5 -122.5t-166 -73.5t-179 -26q-97 0 -187 25t-162 72t-115.5 123t-43.5 169zM524 1311q0 75 54 128.5t129 53.5t128.5 -53.5t53.5 -128.5q0 -76 -53.5 -130.5t-128.5 -54.5t-129 54.5t-54 130.5z" />
<glyph unicode="&#xc0;" horiz-adv-x="1556" d="M88 100q0 18 10 41l551 1274q12 30 36.5 48t53.5 18h78q29 0 52.5 -18t35.5 -48l555 -1274q8 -24 8 -39q0 -31 -17 -56.5t-46 -37.5q-16 -8 -39 -8q-71 0 -96 61l-117 279h-760l-114 -279q-11 -27 -35.5 -44t-57.5 -17q-23 0 -39 8q-59 24 -59 92zM471 524h606l-303 736z M526 1989q0 49 34.5 83.5t84.5 34.5q54 0 82 -32l322 -357q22 -22 22 -51q0 -20 -12 -35q-19 -22 -47 -22q-21 0 -39 12l-406 276q-41 27 -41 91z" />
<glyph unicode="&#xc1;" horiz-adv-x="1515" d="M88 100q0 18 10 41l551 1274q12 30 36.5 48t53.5 18h78q29 0 52.5 -18t35.5 -48l555 -1274q8 -24 8 -39q0 -31 -17 -56.5t-46 -37.5q-16 -8 -39 -8q-71 0 -96 61l-117 279h-760l-114 -279q-11 -27 -35.5 -44t-57.5 -17q-23 0 -39 8q-59 24 -59 92zM471 524h606l-303 736z M485 1667q0 28 23 51l321 357q28 32 82 32q50 0 84.5 -34.5t34.5 -83.5q0 -64 -41 -91l-405 -276q-18 -12 -39 -12q-28 0 -47 22q-13 16 -13 35z" />
<glyph unicode="&#xc2;" horiz-adv-x="1556" d="M88 100q0 18 10 41l551 1274q12 30 36.5 48t53.5 18h78q29 0 52.5 -18t35.5 -48l555 -1274q8 -24 8 -39q0 -31 -17 -56.5t-46 -37.5q-16 -8 -39 -8q-71 0 -96 61l-117 279h-760l-114 -279q-11 -27 -35.5 -44t-57.5 -17q-23 0 -39 8q-59 24 -59 92zM352 1667q0 28 23 51 l309 342q24 26 43 36.5t51 10.5t52 -11t42 -36l310 -342q22 -22 22 -51q0 -20 -12 -35q-19 -22 -47 -22q-21 0 -39 12l-328 238l-327 -238q-18 -12 -39 -12q-28 0 -47 22q-13 16 -13 35zM471 524h606l-303 736z" />
<glyph unicode="&#xc3;" horiz-adv-x="1556" d="M88 100q0 18 10 41l551 1274q12 30 36.5 48t53.5 18h78q29 0 52.5 -18t35.5 -48l555 -1274q8 -24 8 -39q0 -31 -17 -56.5t-46 -37.5q-16 -8 -39 -8q-71 0 -96 61l-117 279h-760l-114 -279q-11 -27 -35.5 -44t-57.5 -17q-23 0 -39 8q-59 24 -59 92zM328 1751q0 59 80 135 q77 74 194 74q11 0 22 -0.5t24.5 -3t21.5 -3.5t24 -5.5t22 -6t25.5 -8t23.5 -8t27.5 -9.5t26.5 -9q8 -3 24.5 -9t25 -9t22.5 -7.5t23 -6.5t20.5 -3.5t21.5 -1.5q11 0 35 4q50 17 90 68q26 28 66 28q36 0 58 -25.5t22 -54.5q0 -59 -80 -139q-77 -74 -197 -74q-14 0 -28 1 t-30.5 5t-27 6t-32 9t-29 9.5t-34.5 12t-34 11.5q-6 2 -35 12.5t-39 14t-29.5 7.5t-33.5 4q-17 0 -35 -6q-58 -19 -90 -63q-22 -31 -63 -31q-35 0 -58.5 25.5t-23.5 56.5zM471 524h606l-303 736z" />
<glyph unicode="&#xc4;" horiz-adv-x="1556" d="M88 100q0 18 10 41l551 1274q12 30 36.5 48t53.5 18h78q29 0 52.5 -18t35.5 -48l555 -1274q8 -24 8 -39q0 -31 -17 -56.5t-46 -37.5q-16 -8 -39 -8q-71 0 -96 61l-117 279h-760l-114 -279q-11 -27 -35.5 -44t-57.5 -17q-23 0 -39 8q-59 24 -59 92zM354 1823 q0 60 44 103.5t104 43.5t103.5 -43.5t43.5 -103.5t-43.5 -104t-103.5 -44t-104 44t-44 104zM471 524h606l-303 736zM905 1823q0 60 44 103.5t104 43.5t103.5 -43.5t43.5 -103.5t-43.5 -104t-103.5 -44t-104 44t-44 104z" />
<glyph unicode="&#xc5;" horiz-adv-x="1556" d="M88 100q0 18 10 41l551 1274q12 30 36.5 48t53.5 18h78q29 0 52.5 -18t35.5 -48l555 -1274q8 -24 8 -39q0 -31 -17 -56.5t-46 -37.5q-16 -8 -39 -8q-71 0 -96 61l-117 279h-760l-114 -279q-11 -27 -35.5 -44t-57.5 -17q-23 0 -39 8q-59 24 -59 92zM471 524h606l-303 736z M502 1876q0 111 81 188.5t193 77.5t194.5 -77t82.5 -189t-82.5 -189t-194.5 -77t-193 77t-81 189zM627 1876q0 -62 44 -106t105 -44q62 0 106 44t44 106q0 61 -44 105t-106 44t-105.5 -43.5t-43.5 -105.5z" />
<glyph unicode="&#xc6;" horiz-adv-x="1671" d="M88 102q0 20 8 39l586 1274q14 30 37.5 48t52.5 18h680q38 0 65 -27t27 -65t-27 -65.5t-65 -27.5h-444v-467h311q38 0 64 -25t26 -63t-26 -63t-64 -25h-311v-469h444q38 0 65 -27t27 -65t-27 -65t-65 -27h-547q-41 0 -70.5 30.5t-29.5 71.5v238h-414l-115 -279 q-12 -28 -38 -44.5t-56 -16.5q-18 0 -37 8q-57 23 -57 94zM469 524h336v731z" />
<glyph unicode="&#xc7;" horiz-adv-x="1689" d="M164 741q0 216 96 390t266.5 272t382.5 98q195 0 354.5 -80.5t256.5 -226.5q16 -24 16 -53q0 -40 -27 -67t-65 -27q-49 0 -82 45q-169 232 -453 229q-241 0 -390.5 -161.5t-149.5 -418.5t149.5 -418t390.5 -161q150 0 254.5 57.5t200.5 179.5q31 39 78 39q40 0 67 -27 t27 -67q0 -34 -18 -59q-104 -147 -260.5 -226t-350.5 -79v-66q33 8 74 8q67 0 113.5 -47.5t46.5 -114.5q0 -80 -51 -125q-60 -53 -166 -53q-82 0 -162 31q-52 20 -71 37.5t-19 42.5q0 23 16 39q14 14 37 14q15 0 27 -6q4 -2 12 -7t18 -9.5t27 -10.5q55 -20 100 -20 q95 0 95 69q0 30 -25 48q-26 18 -76 18q-11 0 -24.5 -2t-16.5 -2q-9 0 -16.5 7.5t-7.5 21.5v131q-146 12 -271 74t-213.5 161t-139 234t-50.5 288z" />
<glyph unicode="&#xc8;" horiz-adv-x="1544" d="M256 102v1276q0 42 29.5 72.5t70.5 30.5h969q38 0 65 -27t27 -65t-27 -65.5t-65 -27.5h-864v-462h549q38 0 65 -27.5t27 -65.5t-27 -65t-65 -27h-549v-465h864q38 0 65 -27t27 -65t-27 -65t-65 -27h-969q-41 0 -70.5 30.5t-29.5 71.5zM565 1989q0 49 34.5 83.5t84.5 34.5 q54 0 82 -32l321 -357q23 -23 23 -51q0 -20 -12 -35q-19 -22 -47 -22q-21 0 -39 12l-406 276q-41 27 -41 91z" />
<glyph unicode="&#xc9;" horiz-adv-x="1544" d="M256 102v1276q0 42 29.5 72.5t70.5 30.5h969q38 0 65 -27t27 -65t-27 -65.5t-65 -27.5h-864v-462h549q38 0 65 -27.5t27 -65.5t-27 -65t-65 -27h-549v-465h864q38 0 65 -27t27 -65t-27 -65t-65 -27h-969q-41 0 -70.5 30.5t-29.5 71.5zM524 1667q0 28 23 51l321 357 q28 32 82 32q50 0 84.5 -34.5t34.5 -83.5q0 -64 -41 -91l-405 -276q-18 -12 -39 -12q-28 0 -47 22q-13 16 -13 35z" />
<glyph unicode="&#xca;" horiz-adv-x="1544" d="M256 102v1276q0 42 29.5 72.5t70.5 30.5h969q38 0 65 -27t27 -65t-27 -65.5t-65 -27.5h-864v-462h549q38 0 65 -27.5t27 -65.5t-27 -65t-65 -27h-549v-465h864q38 0 65 -27t27 -65t-27 -65t-65 -27h-969q-41 0 -70.5 30.5t-29.5 71.5zM406 1667q0 29 22 51l309 342 q24 26 43 36.5t51 10.5t52.5 -11t42.5 -36l309 -342q22 -22 22 -51q0 -20 -12 -35q-19 -22 -47 -22q-21 0 -39 12l-328 238l-327 -238q-18 -12 -39 -12q-28 0 -47 22q-12 15 -12 35z" />
<glyph unicode="&#xcb;" horiz-adv-x="1544" d="M256 102v1276q0 42 29.5 72.5t70.5 30.5h969q38 0 65 -27t27 -65t-27 -65.5t-65 -27.5h-864v-462h549q38 0 65 -27.5t27 -65.5t-27 -65t-65 -27h-549v-465h864q38 0 65 -27t27 -65t-27 -65t-65 -27h-969q-41 0 -70.5 30.5t-29.5 71.5zM412 1823q0 60 43.5 103.5 t103.5 43.5t104 -43.5t44 -103.5t-44 -104t-104 -44t-103.5 44t-43.5 104zM963 1823q0 60 43.5 103.5t103.5 43.5t103.5 -43.5t43.5 -103.5t-43.5 -104t-103.5 -44t-103.5 44t-43.5 104z" />
<glyph unicode="&#xcc;" horiz-adv-x="716" d="M86 1989q0 49 34.5 83.5t84.5 34.5q54 0 82 -32l321 -357q23 -23 23 -51q0 -19 -13 -35q-19 -22 -47 -22q-21 0 -39 12l-405 276q-41 27 -41 91zM256 102v1276q0 43 29.5 73t72.5 30t73 -30t30 -73v-1276q0 -43 -30 -72.5t-73 -29.5t-72.5 29.5t-29.5 72.5z" />
<glyph unicode="&#xcd;" horiz-adv-x="716" d="M86 1667q0 28 23 51l321 357q28 32 82 32q50 0 84.5 -34.5t34.5 -83.5q0 -64 -41 -91l-406 -276q-18 -12 -39 -12q-28 0 -47 22q-12 15 -12 35zM256 102v1276q0 43 29.5 73t72.5 30t73 -30t30 -73v-1276q0 -43 -30 -72.5t-73 -29.5t-72.5 29.5t-29.5 72.5z" />
<glyph unicode="&#xce;" horiz-adv-x="716" d="M-68 1667q0 28 23 51l309 342q24 26 43 36.5t51 10.5t52.5 -11t42.5 -36l309 -342q22 -22 22 -51q0 -20 -12 -35q-19 -22 -47 -22q-21 0 -39 12l-328 238l-327 -238q-18 -12 -39 -12q-28 0 -47 22q-13 16 -13 35zM256 102v1276q0 43 29.5 73t72.5 30t73 -30t30 -73v-1276 q0 -43 -30 -72.5t-73 -29.5t-72.5 29.5t-29.5 72.5z" />
<glyph unicode="&#xcf;" horiz-adv-x="716" d="M-63 1823q0 60 43.5 103.5t103.5 43.5t103.5 -43.5t43.5 -103.5t-43.5 -104t-103.5 -44t-103.5 44t-43.5 104zM256 102v1276q0 43 29.5 73t72.5 30t73 -30t30 -73v-1276q0 -43 -30 -72.5t-73 -29.5t-72.5 29.5t-29.5 72.5zM487 1823q0 60 44 103.5t104 43.5t103.5 -43.5 t43.5 -103.5t-43.5 -104t-103.5 -44t-104 44t-44 104z" />
<glyph unicode="&#xd0;" horiz-adv-x="1658" d="M55 778q0 38 27 65t65 27h136v508q0 42 29.5 72.5t70.5 30.5h434q129 0 245.5 -51t207.5 -142q104 -104 162.5 -246.5t58.5 -300.5q0 -157 -59.5 -300.5t-163.5 -247.5q-190 -193 -451 -193h-434q-41 0 -70.5 30.5t-29.5 71.5v584h-136q-38 0 -65 27t-27 65zM487 184h330 q175 0 307 138q73 77 114.5 185t41.5 234q0 127 -43 237t-119 187q-128 131 -301 131h-330v-426h347q38 0 65 -27t27 -65t-27 -65t-65 -27h-347v-502z" />
<glyph unicode="&#xd1;" horiz-adv-x="1699" d="M256 102v1276q0 43 29.5 73t72.5 30h84q60 0 90 -51l662 -1078q9 -15 15.5 -25.5t10.5 -17.5t7.5 -15t4.5 -11t5 -13.5t6 -15.5h4q-8 39 -8 115v1009q0 43 29.5 73t72.5 30q42 0 71.5 -30t31.5 -73v-1276q0 -43 -30 -72.5t-73 -29.5h-92q-59 0 -88 51l-665 1088l-12 19.5 t-8.5 13.5t-7 12t-4.5 8t-3.5 8t-2.5 6.5t-3.5 9.5t-3.5 11h-5q11 -53 11 -111v-1001q0 -44 -29.5 -79.5t-71.5 -35.5q-43 0 -71.5 29.5t-28.5 72.5zM399 1751q0 59 80 135q77 74 195 74q11 0 22 -0.5t24.5 -3t21.5 -3.5t24 -5.5t22 -6t25.5 -8t23.5 -8t27.5 -9.5t26.5 -9 q8 -3 24.5 -9t25 -9t22.5 -7.5t23 -6.5t20.5 -3.5t21.5 -1.5q11 0 35 4q50 17 90 68q26 28 66 28q36 0 57.5 -25.5t21.5 -54.5q0 -60 -79 -139q-77 -74 -197 -74q-14 0 -28 1t-30.5 5t-27 6t-32 9t-29 9.5t-34.5 12t-34 11.5q-6 2 -35 12.5t-39 14t-29.5 7.5t-33.5 4 q-17 0 -35 -6q-58 -19 -90 -63q-22 -31 -64 -31q-35 0 -58.5 25.5t-23.5 56.5z" />
<glyph unicode="&#xd2;" horiz-adv-x="1777" d="M164 741q0 154 59 294.5t159 242.5t238 162.5t289 60.5t289 -60.5t238 -162.5t159.5 -242.5t59.5 -294.5t-59.5 -295t-159.5 -243t-238 -162.5t-289 -60.5q-101 0 -197.5 27.5t-178 76.5t-150.5 119.5t-117 154t-75 182t-27 201.5zM369 741q0 -119 42.5 -226 t114.5 -184.5t172 -123t211 -45.5q148 0 272.5 77t196.5 210.5t72 291.5t-72 291t-196.5 210t-272.5 77t-272.5 -77t-196 -210t-71.5 -291zM680 1989q0 49 34.5 83.5t84.5 34.5q54 0 82 -32l321 -357q23 -23 23 -51q0 -19 -13 -35q-19 -22 -47 -22q-21 0 -39 12l-405 276 q-41 27 -41 91z" />
<glyph unicode="&#xd3;" horiz-adv-x="1818" d="M164 741q0 154 59 294.5t159 242.5t238 162.5t289 60.5t289 -60.5t238 -162.5t159.5 -242.5t59.5 -294.5t-59.5 -295t-159.5 -243t-238 -162.5t-289 -60.5q-101 0 -197.5 27.5t-178 76.5t-150.5 119.5t-117 154t-75 182t-27 201.5zM369 741q0 -119 42.5 -226 t114.5 -184.5t172 -123t211 -45.5q148 0 272.5 77t196.5 210.5t72 291.5t-72 291t-196.5 210t-272.5 77t-272.5 -77t-196 -210t-71.5 -291zM596 1667q0 29 22 51l322 357q28 32 82 32q50 0 84.5 -34.5t34.5 -83.5q0 -64 -41 -91l-406 -276q-18 -12 -39 -12q-28 0 -47 22 q-12 15 -12 35z" />
<glyph unicode="&#xd4;" horiz-adv-x="1818" d="M164 741q0 154 59 294.5t159 242.5t238 162.5t289 60.5t289 -60.5t238 -162.5t159.5 -242.5t59.5 -294.5t-59.5 -295t-159.5 -243t-238 -162.5t-289 -60.5q-101 0 -197.5 27.5t-178 76.5t-150.5 119.5t-117 154t-75 182t-27 201.5zM369 741q0 -119 42.5 -226 t114.5 -184.5t172 -123t211 -45.5q148 0 272.5 77t196.5 210.5t72 291.5t-72 291t-196.5 210t-272.5 77t-272.5 -77t-196 -210t-71.5 -291zM483 1667q0 28 23 51l309 342q24 26 43 36.5t51 10.5t52.5 -11t42.5 -36l309 -342q22 -22 22 -51q0 -20 -12 -35q-19 -22 -47 -22 q-21 0 -39 12l-328 238l-327 -238q-18 -12 -39 -12q-28 0 -47 22q-13 16 -13 35z" />
<glyph unicode="&#xd5;" horiz-adv-x="1818" d="M164 741q0 154 59 294.5t159 242.5t238 162.5t289 60.5t289 -60.5t238 -162.5t159.5 -242.5t59.5 -294.5t-59.5 -295t-159.5 -243t-238 -162.5t-289 -60.5q-101 0 -197.5 27.5t-178 76.5t-150.5 119.5t-117 154t-75 182t-27 201.5zM369 741q0 -119 42.5 -226 t114.5 -184.5t172 -123t211 -45.5q148 0 272.5 77t196.5 210.5t72 291.5t-72 291t-196.5 210t-272.5 77t-272.5 -77t-196 -210t-71.5 -291zM467 1751q0 59 80 135q77 74 194 74q11 0 22 -0.5t24.5 -3t21.5 -3.5t24 -5.5t22 -6t25.5 -8t23.5 -8t27.5 -9.5t26.5 -9 q7 -2 24.5 -8.5t25 -9l22.5 -7.5t24 -7t20.5 -3.5t21.5 -1.5t34 4q52 18 91 68q26 28 65 28q36 0 58 -25.5t22 -54.5q0 -59 -80 -139q-77 -74 -196 -74q-12 0 -25.5 1.5t-24.5 3t-27 5.5t-24.5 6t-27.5 8.5t-26.5 9t-30.5 10t-30 10.5q-6 2 -35 12.5t-39 14t-29 7.5t-34 4 q-17 0 -35 -6q-58 -19 -90 -63q-22 -31 -63 -31q-35 0 -58.5 25.5t-23.5 56.5z" />
<glyph unicode="&#xd6;" horiz-adv-x="1818" d="M164 741q0 154 59 294.5t159 242.5t238 162.5t289 60.5t289 -60.5t238 -162.5t159.5 -242.5t59.5 -294.5t-59.5 -295t-159.5 -243t-238 -162.5t-289 -60.5q-101 0 -197.5 27.5t-178 76.5t-150.5 119.5t-117 154t-75 182t-27 201.5zM369 741q0 -119 42.5 -226 t114.5 -184.5t172 -123t211 -45.5q148 0 272.5 77t196.5 210.5t72 291.5t-72 291t-196.5 210t-272.5 77t-272.5 -77t-196 -210t-71.5 -291zM485 1823q0 60 44 103.5t104 43.5t103.5 -43.5t43.5 -103.5t-43.5 -104t-103.5 -44t-104 44t-44 104zM1036 1823q0 60 44 103.5 t104 43.5t103.5 -43.5t43.5 -103.5t-43.5 -104t-103.5 -44t-104 44t-44 104z" />
<glyph unicode="&#xd7;" horiz-adv-x="1425" d="M188 119q0 38 27 65l367 367l-367 367q-27 27 -27 65q0 39 27 66q26 26 66 26q39 0 65 -26l367 -367l366 367q26 26 66 26q37 0 63 -26q29 -29 29 -66q0 -36 -29 -65l-366 -367l366 -367q29 -29 29 -65q0 -37 -29 -66q-26 -26 -63 -26q-40 0 -66 26l-366 367l-367 -367 q-26 -26 -65 -26q-40 0 -66 26q-27 27 -27 66z" />
<glyph unicode="&#xd8;" horiz-adv-x="1818" d="M164 741q0 123 37.5 239t107 210t161 165t205 109.5t234.5 38.5q190 0 359 -94l37 55q24 37 71 37q27 0 49 -14q37 -24 37 -78q0 -20 -14 -43l-41 -59q116 -108 182 -255t66 -311q0 -154 -59.5 -295t-159.5 -243t-238 -162.5t-289 -60.5q-190 0 -352 92l-37 -56 q-23 -36 -71 -36q-25 0 -50 14q-37 27 -37 72q0 25 15 49l39 57q-118 108 -185 256t-67 313zM369 741q0 -242 157 -409l635 921q-117 66 -252 66q-148 0 -272.5 -77t-196 -210t-71.5 -291zM664 225q114 -63 245 -63q148 0 272.5 77t196.5 210.5t72 291.5q0 117 -40.5 222 t-113.5 184z" />
<glyph unicode="&#xd9;" horiz-adv-x="1712" d="M236 586v792q0 43 30.5 73t73.5 30t73.5 -30t30.5 -73v-792q0 -173 120 -297.5t292 -124.5t294 124.5t122 297.5v792q0 43 29.5 73t72.5 30t73 -30t30 -73v-792q0 -129 -49.5 -242t-133.5 -192.5t-198 -125.5t-240 -46q-169 0 -310.5 77.5t-225.5 217.5t-84 311z M625 1989q0 49 34.5 83.5t83.5 34.5q54 0 82 -32l322 -357q22 -22 22 -51q0 -20 -12 -35q-19 -22 -47 -22q-21 0 -39 12l-405 276q-41 27 -41 91z" />
<glyph unicode="&#xda;" horiz-adv-x="1712" d="M236 586v792q0 43 30.5 73t73.5 30t73.5 -30t30.5 -73v-792q0 -173 120 -297.5t292 -124.5t294 124.5t122 297.5v792q0 43 29.5 73t72.5 30t73 -30t30 -73v-792q0 -129 -49.5 -242t-133.5 -192.5t-198 -125.5t-240 -46q-169 0 -310.5 77.5t-225.5 217.5t-84 311z M543 1667q0 29 22 51l322 357q28 32 82 32q49 0 83.5 -34.5t34.5 -83.5q0 -64 -40 -91l-406 -276q-18 -12 -39 -12q-28 0 -47 22q-12 15 -12 35z" />
<glyph unicode="&#xdb;" horiz-adv-x="1712" d="M236 586v792q0 43 30.5 73t73.5 30t73.5 -30t30.5 -73v-792q0 -173 120 -297.5t292 -124.5t294 124.5t122 297.5v792q0 43 29.5 73t72.5 30t73 -30t30 -73v-792q0 -129 -49.5 -242t-133.5 -192.5t-198 -125.5t-240 -46q-169 0 -310.5 77.5t-225.5 217.5t-84 311z M430 1667q0 28 23 51l309 342q24 26 43 36.5t51 10.5t52 -11t42 -36l310 -342q22 -22 22 -51q0 -20 -12 -35q-19 -22 -47 -22q-21 0 -39 12l-328 238l-328 -238q-18 -12 -39 -12q-28 0 -47 22q-12 15 -12 35z" />
<glyph unicode="&#xdc;" horiz-adv-x="1712" d="M236 586v792q0 43 30.5 73t73.5 30t73.5 -30t30.5 -73v-792q0 -173 120 -297.5t292 -124.5t294 124.5t122 297.5v792q0 43 29.5 73t72.5 30t73 -30t30 -73v-792q0 -129 -49.5 -242t-133.5 -192.5t-198 -125.5t-240 -46q-169 0 -310.5 77.5t-225.5 217.5t-84 311z M432 1823q0 60 44 103.5t104 43.5t103.5 -43.5t43.5 -103.5t-43.5 -104t-103.5 -44t-104 44t-44 104zM983 1823q0 60 43.5 103.5t103.5 43.5t104 -43.5t44 -103.5t-44 -104t-104 -44t-103.5 44t-43.5 104z" />
<glyph unicode="&#xdd;" horiz-adv-x="1388" d="M90 1378q0 41 31 72t72 31q55 0 83 -45l422 -643l412 643q29 45 86 45q41 0 71.5 -31t30.5 -72q0 -30 -18 -57l-492 -709q9 -432 9 -510q0 -43 -30 -72.5t-73 -29.5t-72.5 29.5t-29.5 72.5l8 510l-491 709q-19 29 -19 57zM381 1667q0 29 22 51l322 357q28 32 82 32 q50 0 84.5 -34.5t34.5 -83.5q0 -64 -41 -91l-406 -276q-18 -12 -39 -12q-28 0 -47 22q-12 15 -12 35z" />
<glyph unicode="&#xde;" horiz-adv-x="1708" d="M348 102v1276q0 43 30 73t73 30t73.5 -30t30.5 -73v-164h500q122 0 230.5 -40t184.5 -113q121 -121 121 -289q0 -180 -118 -301q-145 -145 -418 -145h-500v-224q0 -43 -29.5 -72.5t-72.5 -29.5t-74 30t-31 72zM555 510h504q186 0 264 78q63 63 63 184q0 89 -65 160 q-95 98 -266 98h-500v-520z" />
<glyph unicode="&#xdf;" horiz-adv-x="1595" d="M215 102v924q0 112 41.5 200t115 143t171 83.5t213.5 28.5q105 0 198 -21.5t171.5 -65t124.5 -119.5t46 -177q0 -94 -51.5 -175t-128.5 -124q275 -110 275 -375q0 -90 -30 -162t-82.5 -120.5t-127 -80.5t-160 -46.5t-184.5 -14.5q-82 0 -199 23q-52 10 -69 55 q-7 18 -7 31q0 60 52 81q18 7 37 7q8 0 74 -9.5t112 -9.5q93 0 164 16t112 40.5t66.5 58.5t34 65t8.5 66q0 127 -99.5 202.5t-248.5 75.5q-35 0 -59.5 24t-24.5 58q0 35 24.5 59.5t59.5 24.5q110 0 183 74.5t73 155.5q0 87 -85 147t-267 60q-84 0 -147 -21t-98 -51.5 t-56.5 -73t-28 -77t-6.5 -70.5v-910q0 -42 -27.5 -72t-69.5 -30q-41 0 -70.5 30.5t-29.5 71.5z" />
<glyph unicode="&#xe0;" horiz-adv-x="1478" d="M143 549q0 153 75 282t203.5 204t280.5 75q223 0 369 -143v37q0 40 28 68t68 28q39 0 66.5 -28t30.5 -68v-908q0 -40 -28.5 -68t-68.5 -28t-68 28t-28 68v37q-146 -143 -366 -143q-155 0 -284 74t-203.5 202.5t-74.5 282.5zM336 551q0 -163 104 -275t262 -112 q163 0 266 111.5t103 275.5q0 166 -102.5 275.5t-263.5 109.5q-159 0 -264 -111.5t-105 -273.5zM471 1608q0 49 34.5 83.5t84.5 34.5q54 0 82 -32l321 -357q23 -23 23 -51q0 -20 -12 -35q-19 -22 -48 -22q-20 0 -38 12l-406 277q-41 27 -41 90z" />
<glyph unicode="&#xe1;" horiz-adv-x="1478" d="M143 549q0 153 75 282t203.5 204t280.5 75q223 0 369 -143v37q0 40 28 68t68 28q39 0 66.5 -28t30.5 -68v-908q0 -40 -28.5 -68t-68.5 -28t-68 28t-28 68v37q-146 -143 -366 -143q-155 0 -284 74t-203.5 202.5t-74.5 282.5zM336 551q0 -163 104 -275t262 -112 q163 0 266 111.5t103 275.5q0 166 -102.5 275.5t-263.5 109.5q-159 0 -264 -111.5t-105 -273.5zM391 1286q0 28 23 51l321 357q28 32 82 32q50 0 84.5 -34.5t34.5 -83.5q0 -63 -41 -90l-406 -277q-18 -12 -38 -12q-29 0 -48 22q-12 15 -12 35z" />
<glyph unicode="&#xe2;" horiz-adv-x="1478" d="M143 549q0 153 75 282t203.5 204t280.5 75q223 0 369 -143v37q0 40 28 68t68 28q39 0 66.5 -28t30.5 -68v-908q0 -40 -28.5 -68t-68.5 -28t-68 28t-28 68v37q-146 -143 -366 -143q-155 0 -284 74t-203.5 202.5t-74.5 282.5zM283 1286q0 29 22 51l309 342q24 26 43.5 36.5 t51.5 10.5t52 -11t42 -36l309 -342q23 -23 23 -51q0 -19 -13 -35q-19 -22 -47 -22q-21 0 -39 12l-327 238l-328 -238q-18 -12 -39 -12q-28 0 -47 22q-12 15 -12 35zM336 551q0 -163 104 -275t262 -112q163 0 266 111.5t103 275.5q0 166 -102.5 275.5t-263.5 109.5 q-159 0 -264 -111.5t-105 -273.5z" />
<glyph unicode="&#xe3;" horiz-adv-x="1478" d="M143 549q0 153 75 282t203.5 204t280.5 75q223 0 369 -143v37q0 40 28 68t68 28q39 0 66.5 -28t30.5 -68v-908q0 -40 -28.5 -68t-68.5 -28t-68 28t-28 68v37q-146 -143 -366 -143q-155 0 -284 74t-203.5 202.5t-74.5 282.5zM276 1370q0 59 80 135q77 74 195 74 q11 0 22 -0.5t24.5 -3t21.5 -3.5t24 -5.5t22 -6t25.5 -8t23.5 -8t27.5 -9.5t26.5 -9q8 -3 24.5 -9t25 -9t22.5 -7.5t23 -6.5t20.5 -3.5t21.5 -1.5q11 0 35 4q50 17 90 68q26 28 66 28q36 0 58 -25.5t22 -54.5q0 -59 -80 -139q-77 -74 -197 -74q-14 0 -28 1t-30.5 5t-27 6 t-32 9t-29 9.5t-34.5 12t-34 11.5q-10 4 -36 13.5t-38 13.5t-30.5 8t-32.5 4t-35 -7q-58 -19 -90 -63q-22 -31 -64 -31q-35 0 -58.5 25.5t-23.5 56.5zM336 551q0 -163 104 -275t262 -112q163 0 266 111.5t103 275.5q0 166 -102.5 275.5t-263.5 109.5q-159 0 -264 -111.5 t-105 -273.5z" />
<glyph unicode="&#xe4;" horiz-adv-x="1478" d="M143 549q0 153 75 282t203.5 204t280.5 75q223 0 369 -143v37q0 40 28 68t68 28q39 0 66.5 -28t30.5 -68v-908q0 -40 -28.5 -68t-68.5 -28t-68 28t-28 68v37q-146 -143 -366 -143q-155 0 -284 74t-203.5 202.5t-74.5 282.5zM287 1442q0 60 43.5 103.5t103.5 43.5 t104 -43.5t44 -103.5t-44 -104t-104 -44t-103.5 44t-43.5 104zM336 551q0 -163 104 -275t262 -112q163 0 266 111.5t103 275.5q0 166 -102.5 275.5t-263.5 109.5q-159 0 -264 -111.5t-105 -273.5zM838 1442q0 60 43.5 103.5t103.5 43.5t104 -43.5t44 -103.5t-44 -104 t-104 -44t-103.5 44t-43.5 104z" />
<glyph unicode="&#xe5;" horiz-adv-x="1478" d="M143 549q0 153 75 282t203.5 204t280.5 75q223 0 369 -143v37q0 40 28 68t68 28q39 0 66.5 -28t30.5 -68v-908q0 -40 -28.5 -68t-68.5 -28t-68 28t-28 68v37q-146 -143 -366 -143q-155 0 -284 74t-203.5 202.5t-74.5 282.5zM336 551q0 -163 104 -275t262 -112 q163 0 266 111.5t103 275.5q0 166 -102.5 275.5t-263.5 109.5q-159 0 -264 -111.5t-105 -273.5zM430 1495q0 111 81.5 188.5t193.5 77.5t194 -77t82 -189t-82 -189t-194 -77t-193.5 77t-81.5 189zM555 1495q0 -61 44 -105t106 -44q61 0 105 44t44 105q0 62 -44 106t-105 44 t-105.5 -44.5t-44.5 -105.5z" />
<glyph unicode="&#xe6;" horiz-adv-x="2045" d="M143 319q0 144 101 232q99 86 260 86h385v100q0 50 -12 86t-32.5 58t-53 35t-67.5 17.5t-83 4.5q-77 0 -140.5 -19.5t-133.5 -64.5q-18 -12 -45 -12q-35 0 -59.5 24.5t-24.5 61.5q0 42 41 69q171 113 354 113q145 0 239 -40t154 -134q62 84 159.5 129t219.5 45 q147 0 262.5 -76.5t176.5 -203t61 -279.5q0 -36 -26 -62t-62 -26h-725q26 -134 108 -217.5t205 -83.5q78 0 140.5 29t123.5 92q29 32 70 32q36 0 60 -25.5t24 -62.5q0 -36 -29 -65q-153 -172 -387 -172q-228 0 -373 174q-54 -45 -141 -94q-52 -28 -79.5 -40.5t-87 -26 t-130.5 -13.5q-92 0 -171.5 18.5t-143.5 57t-101 103.5t-37 150zM338 319q0 -73 66.5 -114t191.5 -41q63 0 111.5 8t84 25t51.5 28t44 33l2 211h-359q-106 0 -149 -40t-43 -110zM1092 637h618q-19 134 -99 217.5t-204 83.5q-122 0 -210 -83.5t-105 -217.5z" />
<glyph unicode="&#xe7;" horiz-adv-x="1304" d="M143 549q0 153 74 282t202.5 204t282.5 75q138 0 258 -62t193 -167q18 -29 18 -56q0 -38 -27.5 -65t-64.5 -27q-46 0 -78 45q-119 158 -296 158q-159 0 -264 -111.5t-105 -273.5q0 -163 104 -275t262 -112q187 0 297 158q30 45 78 45q38 0 65 -27.5t27 -65.5 q0 -31 -18 -55q-75 -106 -192.5 -167.5t-253.5 -61.5h-11v-76q33 8 74 8q67 0 113.5 -47.5t46.5 -114.5q0 -80 -51 -125q-60 -53 -166 -53q-82 0 -162 31q-52 20 -71 37.5t-19 42.5q0 23 16 39q14 14 37 14q15 0 27 -6q4 -2 12 -7t18 -9.5t27 -10.5q55 -20 100 -20 q95 0 95 69q0 30 -25 48q-26 18 -76 18q-12 0 -25 -2t-16 -2q-9 0 -16.5 7.5t-7.5 21.5v143q-206 28 -344 185t-138 368z" />
<glyph unicode="&#xe8;" horiz-adv-x="1341" d="M143 549q0 161 71.5 290t195 200t274.5 71q220 0 368 -154t148 -387q0 -37 -24.5 -63.5t-65.5 -26.5h-770q19 -135 113.5 -225t226.5 -90q90 0 157 30t132 95q37 37 71 37q36 0 61 -25.5t25 -64.5q0 -34 -26 -64q-78 -88 -186 -135t-224 -47q-154 0 -279 72t-196.5 200 t-71.5 287zM344 645h662q-14 129 -102.5 212t-217.5 83t-226.5 -81t-115.5 -214zM442 1608q0 49 34.5 83.5t84.5 34.5q54 0 82 -32l322 -357q22 -22 22 -51q0 -20 -12 -35q-19 -22 -47 -22q-21 0 -39 12l-406 277q-41 27 -41 90z" />
<glyph unicode="&#xe9;" horiz-adv-x="1341" d="M143 549q0 161 71.5 290t195 200t274.5 71q220 0 368 -154t148 -387q0 -37 -24.5 -63.5t-65.5 -26.5h-770q19 -135 113.5 -225t226.5 -90q90 0 157 30t132 95q37 37 71 37q36 0 61 -25.5t25 -64.5q0 -34 -26 -64q-78 -88 -186 -135t-224 -47q-154 0 -279 72t-196.5 200 t-71.5 287zM344 645h662q-14 129 -102.5 212t-217.5 83t-226.5 -81t-115.5 -214zM356 1286q0 28 23 51l321 357q28 32 82 32q50 0 84.5 -34.5t34.5 -83.5q0 -63 -41 -90l-405 -277q-18 -12 -39 -12q-28 0 -47 22q-13 16 -13 35z" />
<glyph unicode="&#xea;" horiz-adv-x="1341" d="M143 549q0 161 71.5 290t195 200t274.5 71q220 0 368 -154t148 -387q0 -37 -24.5 -63.5t-65.5 -26.5h-770q19 -135 113.5 -225t226.5 -90q90 0 157 30t132 95q37 37 71 37q36 0 61 -25.5t25 -64.5q0 -34 -26 -64q-78 -88 -186 -135t-224 -47q-154 0 -279 72t-196.5 200 t-71.5 287zM248 1286q0 29 22 51l310 342q24 26 43 36.5t51 10.5t52 -11t42 -36l309 -342q23 -23 23 -51q0 -19 -13 -35q-19 -22 -47 -22q-21 0 -39 12l-327 238l-328 -238q-18 -12 -39 -12q-28 0 -47 22q-12 15 -12 35zM344 645h662q-14 129 -102.5 212t-217.5 83 t-226.5 -81t-115.5 -214z" />
<glyph unicode="&#xeb;" horiz-adv-x="1341" d="M143 549q0 161 71.5 290t195 200t274.5 71q220 0 368 -154t148 -387q0 -37 -24.5 -63.5t-65.5 -26.5h-770q19 -135 113.5 -225t226.5 -90q90 0 157 30t132 95q37 37 71 37q36 0 61 -25.5t25 -64.5q0 -34 -26 -64q-78 -88 -186 -135t-224 -47q-154 0 -279 72t-196.5 200 t-71.5 287zM256 1442q0 60 43.5 103.5t103.5 43.5t104 -43.5t44 -103.5t-44 -104t-104 -44t-103.5 44t-43.5 104zM344 645h662q-14 129 -102.5 212t-217.5 83t-226.5 -81t-115.5 -214zM807 1442q0 60 43.5 103.5t103.5 43.5t104 -43.5t44 -103.5t-44 -104t-104 -44 t-103.5 44t-43.5 104z" />
<glyph unicode="&#xec;" horiz-adv-x="643" d="M49 1608q0 49 34.5 83.5t84.5 34.5q54 0 82 -32l321 -357q23 -23 23 -51q0 -20 -12 -35q-19 -22 -47 -22q-21 0 -39 12l-406 277q-41 27 -41 90zM225 96v908q0 40 28.5 68t68.5 28t68 -28t28 -68v-908q0 -40 -28 -68t-68 -28t-68.5 28t-28.5 68z" />
<glyph unicode="&#xed;" horiz-adv-x="643" d="M49 1286q0 28 23 51l321 357q28 32 82 32q50 0 84.5 -34.5t34.5 -83.5q0 -63 -41 -90l-406 -277q-18 -12 -38 -12q-29 0 -48 22q-12 15 -12 35zM225 96v908q0 40 28.5 68t68.5 28t68 -28t28 -68v-908q0 -40 -28 -68t-68 -28t-68.5 28t-28.5 68z" />
<glyph unicode="&#xee;" horiz-adv-x="643" d="M-104 1286q0 29 22 51l309 342q24 26 43.5 36.5t51.5 10.5t52 -11t42 -36l309 -342q23 -23 23 -51q0 -19 -13 -35q-19 -22 -47 -22q-21 0 -39 12l-327 238l-328 -238q-18 -12 -39 -12q-28 0 -47 22q-12 15 -12 35zM225 96v908q0 40 28.5 68t68.5 28t68 -28t28 -68v-908 q0 -40 -28 -68t-68 -28t-68.5 28t-28.5 68z" />
<glyph unicode="&#xef;" horiz-adv-x="643" d="M-100 1442q0 60 43.5 103.5t103.5 43.5t104 -43.5t44 -103.5t-44 -104t-104 -44t-103.5 44t-43.5 104zM225 96v908q0 40 28.5 68t68.5 28t68 -28t28 -68v-908q0 -40 -28 -68t-68 -28t-68.5 28t-28.5 68zM451 1442q0 60 43.5 103.5t103.5 43.5t103.5 -43.5t43.5 -103.5 t-43.5 -104t-103.5 -44t-103.5 44t-43.5 104z" />
<glyph unicode="&#xf0;" horiz-adv-x="1517" d="M164 547q0 163 76.5 292.5t207.5 201t291 71.5q82 0 157 -26.5t130 -69.5q-100 208 -332 346l-184 -131q-21 -14 -43 -14q-36 0 -57 30q-15 23 -15 43q0 36 31 58l121 86q-83 32 -141 41q-35 5 -59.5 32t-24.5 64q0 40 28 67t68 27q14 0 26 -2q121 -19 277 -102l199 141 q21 14 43 14q36 0 57 -30q14 -21 14 -44q0 -36 -30 -57l-150 -106q91 -67 143 -119q66 -66 117 -136t100 -168t76 -225.5t27 -275.5q0 -166 -80.5 -299t-211.5 -204.5t-284 -71.5t-286 76.5t-212 207.5t-79 283zM369 549q0 -162 105.5 -273.5t264.5 -111.5q161 0 267 107.5 t106 269.5q0 178 -104.5 284.5t-266.5 106.5t-267 -107t-105 -276z" />
<glyph unicode="&#xf1;" horiz-adv-x="1460" d="M215 96v908q0 40 28 68t68 28t68.5 -28t28.5 -68v-64q138 170 366 170q139 0 248 -56.5t170 -154.5q74 -124 74 -334v-469q0 -40 -28.5 -68t-68.5 -28t-68 28t-28 68v477q0 117 -24 185q-30 84 -102 131t-179 47q-102 0 -180.5 -45.5t-118.5 -112.5q-61 -99 -61 -221 v-461q0 -40 -28.5 -68t-68.5 -28t-68 28t-28 68zM297 1370q0 59 80 135q77 74 194 74q11 0 22 -0.5t24.5 -3t21.5 -3.5t24 -5.5t22 -6t25.5 -8t23.5 -8t27.5 -9.5t26.5 -9q7 -2 24.5 -8.5t25 -9l22.5 -7.5t24 -7t20.5 -3.5t21.5 -1.5q11 0 35 4q50 17 90 68q26 28 65 28 q36 0 58 -25.5t22 -54.5q0 -59 -80 -139q-77 -74 -196 -74q-14 0 -28 1t-30.5 5t-27 6t-32 9t-29 9.5t-34.5 12t-34 11.5q-9 3 -36 13t-38.5 14t-30.5 8t-33 4t-35 -7q-58 -19 -90 -63q-22 -31 -63 -31q-35 0 -58.5 25.5t-23.5 56.5z" />
<glyph unicode="&#xf2;" horiz-adv-x="1409" d="M143 549q0 153 74.5 282t203 204t281.5 75t283 -74.5t205.5 -203t75.5 -281.5t-75.5 -282t-205.5 -204t-283 -75t-281.5 74.5t-203 203t-74.5 281.5zM336 551q0 -163 103.5 -275t262.5 -112q160 0 265.5 112t105.5 275t-105.5 274t-265.5 111q-159 0 -262.5 -111.5 t-103.5 -273.5zM473 1608q0 49 34.5 83.5t84.5 34.5q54 0 82 -32l321 -357q23 -23 23 -51q0 -20 -12 -35q-19 -22 -48 -22q-20 0 -38 12l-406 277q-41 27 -41 90z" />
<glyph unicode="&#xf3;" horiz-adv-x="1409" d="M143 549q0 153 74.5 282t203 204t281.5 75t283 -74.5t205.5 -203t75.5 -281.5t-75.5 -282t-205.5 -204t-283 -75t-281.5 74.5t-203 203t-74.5 281.5zM336 551q0 -163 103.5 -275t262.5 -112q160 0 265.5 112t105.5 275t-105.5 274t-265.5 111q-159 0 -262.5 -111.5 t-103.5 -273.5zM391 1286q0 28 23 51l321 357q28 32 82 32q50 0 84.5 -34.5t34.5 -83.5q0 -63 -41 -90l-406 -277q-18 -12 -38 -12q-29 0 -48 22q-12 15 -12 35z" />
<glyph unicode="&#xf4;" horiz-adv-x="1409" d="M143 549q0 153 74.5 282t203 204t281.5 75t283 -74.5t205.5 -203t75.5 -281.5t-75.5 -282t-205.5 -204t-283 -75t-281.5 74.5t-203 203t-74.5 281.5zM279 1286q0 29 22 51l309 342q24 26 43.5 36.5t51.5 10.5t52 -11t42 -36l309 -342q22 -22 22 -51q0 -20 -12 -35 q-19 -22 -47 -22q-21 0 -39 12l-327 238l-328 -238q-18 -12 -39 -12q-28 0 -47 22q-12 15 -12 35zM336 551q0 -163 103.5 -275t262.5 -112q160 0 265.5 112t105.5 275t-105.5 274t-265.5 111q-159 0 -262.5 -111.5t-103.5 -273.5z" />
<glyph unicode="&#xf5;" horiz-adv-x="1409" d="M143 549q0 153 74.5 282t203 204t281.5 75t283 -74.5t205.5 -203t75.5 -281.5t-75.5 -282t-205.5 -204t-283 -75t-281.5 74.5t-203 203t-74.5 281.5zM254 1370q0 59 80 135q77 74 194 74q11 0 22 -0.5t24.5 -3t21.5 -3.5t24 -5.5t22 -6t25.5 -8t23.5 -8t27.5 -9.5 t26.5 -9q7 -2 24.5 -8.5t25 -9l22.5 -7.5t24 -7t20.5 -3.5t21.5 -1.5q11 0 35 4q50 17 90 68q26 28 65 28q36 0 58 -25.5t22 -54.5q0 -59 -80 -139q-77 -74 -196 -74q-14 0 -28 1t-30.5 5t-27 6t-32 9t-29 9.5t-34.5 12t-34 11.5q-9 3 -36 13t-38.5 14t-30.5 8t-33 4t-35 -7 q-58 -19 -90 -63q-22 -31 -63 -31q-35 0 -58.5 25.5t-23.5 56.5zM336 551q0 -163 103.5 -275t262.5 -112q160 0 265.5 112t105.5 275t-105.5 274t-265.5 111q-159 0 -262.5 -111.5t-103.5 -273.5z" />
<glyph unicode="&#xf6;" horiz-adv-x="1409" d="M143 549q0 153 74.5 282t203 204t281.5 75t283 -74.5t205.5 -203t75.5 -281.5t-75.5 -282t-205.5 -204t-283 -75t-281.5 74.5t-203 203t-74.5 281.5zM281 1442q0 60 43.5 103.5t103.5 43.5t103.5 -43.5t43.5 -103.5t-43.5 -104t-103.5 -44t-103.5 44t-43.5 104zM336 551 q0 -163 103.5 -275t262.5 -112q160 0 265.5 112t105.5 275t-105.5 274t-265.5 111q-159 0 -262.5 -111.5t-103.5 -273.5zM831 1442q0 60 44 103.5t104 43.5t103.5 -43.5t43.5 -103.5t-43.5 -104t-103.5 -44t-104 44t-44 104z" />
<glyph unicode="&#xf7;" horiz-adv-x="1425" d="M133 563q0 38 27 65t65 27h975q38 0 65 -27t27 -65t-27 -65t-65 -27h-975q-38 0 -65 27t-27 65zM541 178q0 72 51 123t123 51t123 -51t51 -123t-51 -123t-123 -51t-123 51t-51 123zM541 948q0 72 51 123t123 51t123 -51t51 -123t-51 -123t-123 -51t-123 51t-51 123z" />
<glyph unicode="&#xf8;" horiz-adv-x="1409" d="M143 549q0 153 74.5 282t203 204t281.5 75q134 0 248 -57l13 16q28 39 67 39q21 0 47 -16q41 -30 41 -68q0 -20 -18 -49l-13 -17q85 -78 132 -183t47 -224q0 -153 -75.5 -282t-205.5 -204t-283 -75q-135 0 -245 55l-11 -16q-24 -37 -61 -37q-27 0 -53 16q-35 22 -35 66 q0 30 14 49l11 14q-85 78 -132 184.5t-47 227.5zM336 551q0 -153 90 -260l424 614q-70 31 -148 31q-159 0 -262.5 -111.5t-103.5 -273.5zM559 193q69 -29 143 -29q160 0 265.5 112t105.5 275q0 149 -90 256z" />
<glyph unicode="&#xf9;" horiz-adv-x="1449" d="M184 535v469q0 40 28.5 68t68.5 28t68 -28t28 -68v-478q0 -116 24 -184q30 -84 102 -131t179 -47q102 0 180.5 45.5t118.5 112.5q61 99 61 221v461q0 40 28.5 68t68.5 28t68 -28t28 -68v-908q0 -40 -28 -68t-68 -28t-68.5 28t-28.5 68v64q-138 -170 -366 -170 q-139 0 -248 56.5t-170 154.5q-74 124 -74 334zM477 1608q0 49 34.5 83.5t84.5 34.5q54 0 82 -32l321 -357q23 -23 23 -51q0 -20 -12 -35q-19 -22 -47 -22q-21 0 -39 12l-406 277q-41 27 -41 90z" />
<glyph unicode="&#xfa;" horiz-adv-x="1449" d="M184 535v469q0 40 28.5 68t68.5 28t68 -28t28 -68v-478q0 -116 24 -184q30 -84 102 -131t179 -47q102 0 180.5 45.5t118.5 112.5q61 99 61 221v461q0 40 28.5 68t68.5 28t68 -28t28 -68v-908q0 -40 -28 -68t-68 -28t-68.5 28t-28.5 68v64q-138 -170 -366 -170 q-139 0 -248 56.5t-170 154.5q-74 124 -74 334zM395 1286q0 28 23 51l321 357q28 32 82 32q50 0 84.5 -34.5t34.5 -83.5q0 -63 -41 -90l-405 -277q-18 -12 -39 -12q-28 0 -47 22q-13 16 -13 35z" />
<glyph unicode="&#xfb;" horiz-adv-x="1449" d="M184 535v469q0 40 28.5 68t68.5 28t68 -28t28 -68v-478q0 -116 24 -184q30 -84 102 -131t179 -47q102 0 180.5 45.5t118.5 112.5q61 99 61 221v461q0 40 28.5 68t68.5 28t68 -28t28 -68v-908q0 -40 -28 -68t-68 -28t-68.5 28t-28.5 68v64q-138 -170 -366 -170 q-139 0 -248 56.5t-170 154.5q-74 124 -74 334zM279 1286q0 29 22 51l309 342q24 26 43.5 36.5t51.5 10.5t52 -11t42 -36l309 -342q22 -22 22 -51q0 -20 -12 -35q-19 -22 -47 -22q-21 0 -39 12l-327 238l-328 -238q-18 -12 -39 -12q-28 0 -47 22q-12 15 -12 35z" />
<glyph unicode="&#xfc;" horiz-adv-x="1449" d="M184 535v469q0 40 28.5 68t68.5 28t68 -28t28 -68v-478q0 -116 24 -184q30 -84 102 -131t179 -47q102 0 180.5 45.5t118.5 112.5q61 99 61 221v461q0 40 28.5 68t68.5 28t68 -28t28 -68v-908q0 -40 -28 -68t-68 -28t-68.5 28t-28.5 68v64q-138 -170 -366 -170 q-139 0 -248 56.5t-170 154.5q-74 124 -74 334zM285 1442q0 60 43.5 103.5t103.5 43.5t104 -43.5t44 -103.5t-44 -104t-104 -44t-103.5 44t-43.5 104zM836 1442q0 60 43.5 103.5t103.5 43.5t103.5 -43.5t43.5 -103.5t-43.5 -104t-103.5 -44t-103.5 44t-43.5 104z" />
<glyph unicode="&#xfd;" horiz-adv-x="1337" d="M59 -260q0 37 25.5 63.5t62.5 26.5q30 0 60 -23q61 -49 119 -49q53 0 98.5 28.5t71.5 78.5l90 176q-21 13 -37 47l-447 873q-10 20 -10 43q0 27 14.5 50.5t38.5 35.5q23 10 43 10q27 0 50.5 -14t35.5 -39l365 -740q34 -71 37 -82h4q3 11 37 82l366 740q24 53 84 53 q22 0 45 -10q25 -12 39.5 -35.5t14.5 -50.5q0 -20 -13 -43l-604 -1180q-49 -95 -133 -147t-182 -52q-130 0 -240 88q-35 28 -35 70zM365 1286q0 29 22 51l322 357q28 32 82 32q49 0 83.5 -34t34.5 -84q0 -63 -41 -90l-405 -277q-18 -12 -39 -12q-28 0 -47 22q-12 15 -12 35z " />
<glyph unicode="&#xfe;" horiz-adv-x="1499" d="M236 -285v1669q0 40 28 68.5t68 28.5t68 -28.5t28 -68.5v-417q146 143 367 143q153 0 282 -75t204 -203.5t75 -280.5q0 -153 -75 -282t-203.5 -204t-280.5 -75q-223 0 -369 143v-418q0 -40 -28 -68t-68 -28t-68 28t-28 68zM428 551q0 -163 104.5 -275t262.5 -112 q162 0 265 112.5t103 272.5q0 163 -104 275t-262 112q-159 0 -264 -111.5t-105 -273.5z" />
<glyph unicode="&#xff;" horiz-adv-x="1337" d="M59 -260q0 37 25.5 63.5t62.5 26.5q30 0 60 -23q61 -49 119 -49q53 0 98.5 28.5t71.5 78.5l90 176q-21 13 -37 47l-447 873q-10 20 -10 43q0 27 14.5 50.5t38.5 35.5q23 10 43 10q27 0 50.5 -14t35.5 -39l365 -740q34 -71 37 -82h4q3 11 37 82l366 740q24 53 84 53 q22 0 45 -10q25 -12 39.5 -35.5t14.5 -50.5q0 -20 -13 -43l-604 -1180q-49 -95 -133 -147t-182 -52q-130 0 -240 88q-35 28 -35 70zM258 1442q0 60 44 103.5t104 43.5t103.5 -43.5t43.5 -103.5t-43.5 -104t-103.5 -44t-104 44t-44 104zM809 1442q0 60 43.5 103.5t103.5 43.5 t104 -43.5t44 -103.5t-44 -104t-104 -44t-103.5 44t-43.5 104z" />
<glyph unicode="&#x2000;" horiz-adv-x="1071" />
<glyph unicode="&#x2001;" horiz-adv-x="2142" />
<glyph unicode="&#x2002;" horiz-adv-x="1071" />
<glyph unicode="&#x2003;" horiz-adv-x="2142" />
<glyph unicode="&#x2004;" horiz-adv-x="714" />
<glyph unicode="&#x2005;" horiz-adv-x="535" />
<glyph unicode="&#x2006;" horiz-adv-x="357" />
<glyph unicode="&#x2007;" horiz-adv-x="357" />
<glyph unicode="&#x2008;" horiz-adv-x="267" />
<glyph unicode="&#x2009;" horiz-adv-x="428" />
<glyph unicode="&#x200a;" horiz-adv-x="119" />
<glyph unicode="&#x2010;" horiz-adv-x="1202" d="M215 563q0 37 25.5 62.5t60.5 25.5h600q35 0 60.5 -25.5t25.5 -62.5t-25.5 -62.5t-60.5 -25.5h-600q-35 0 -60.5 25.5t-25.5 62.5z" />
<glyph unicode="&#x2011;" horiz-adv-x="1202" d="M215 563q0 37 25.5 62.5t60.5 25.5h600q35 0 60.5 -25.5t25.5 -62.5t-25.5 -62.5t-60.5 -25.5h-600q-35 0 -60.5 25.5t-25.5 62.5z" />
<glyph unicode="&#x2012;" horiz-adv-x="1202" d="M215 563q0 37 25.5 62.5t60.5 25.5h600q35 0 60.5 -25.5t25.5 -62.5t-25.5 -62.5t-60.5 -25.5h-600q-35 0 -60.5 25.5t-25.5 62.5z" />
<glyph unicode="&#x2013;" horiz-adv-x="1454" d="M215 563q0 37 34 62.5t80 25.5h796q46 0 80 -25.5t34 -62.5t-34 -62.5t-80 -25.5h-796q-46 0 -80 25.5t-34 62.5z" />
<glyph unicode="&#x2014;" horiz-adv-x="2478" d="M215 563q0 37 67.5 62.5t160.5 25.5h1592q93 0 160.5 -25.5t67.5 -62.5t-67.5 -62.5t-160.5 -25.5h-1592q-93 0 -160.5 25.5t-67.5 62.5z" />
<glyph unicode="&#x202f;" horiz-adv-x="428" />
<glyph unicode="&#x205f;" horiz-adv-x="535" />
<glyph unicode="&#xe000;" horiz-adv-x="1095" d="M0 0v1096h1096v-1096h-1096z" />
<glyph unicode="&#xfb01;" horiz-adv-x="1552" d="M31 1012q0 37 25.5 62.5t60.5 25.5h215v74q0 154 109 259t259 105q112 0 205 -63q37 -24 37 -72q0 -36 -23 -62t-61 -26q-26 0 -55 16q-23 13 -32.5 17.5t-29.5 10t-41 5.5q-76 0 -126 -57t-50 -133v-74h707q40 0 67 -28t27 -68v-908q0 -40 -28 -68t-68 -28t-68 28 t-28 68v830h-609v-830q0 -40 -28 -68t-68 -28t-68 28t-28 68v830h-213q-37 0 -62.5 25.5t-25.5 60.5zM1083 1438q0 60 44 103.5t104 43.5t103.5 -43.5t43.5 -103.5t-43.5 -104t-103.5 -44t-104 44t-44 104z" />
<glyph unicode="&#xfb02;" horiz-adv-x="1482" d="M31 1012q0 37 25.5 62.5t60.5 25.5h215v74q0 154 109 259t259 105q117 0 207 -68q35 -25 35 -67q0 -35 -23 -61.5t-59 -26.5q-29 0 -59 18q-51 31 -101 31q-76 0 -126 -57t-50 -133v-74h291q37 0 62.5 -25.5t25.5 -60.5q0 -37 -25.5 -62.5t-60.5 -25.5h-293v-830 q0 -40 -28 -68t-68 -28t-68 28t-28 68v830h-213q-37 0 -62.5 25.5t-25.5 60.5zM1055 96v1288q0 40 28 68.5t68 28.5t68 -28.5t28 -68.5v-1288q0 -40 -28 -68t-68 -28t-68 28t-28 68z" />
</font>
</defs>
</svg>
